%TF.GenerationSoftware,KiCad,Pcbnew,10.0.3*%
%TF.CreationDate,2026-06-29T21:10:13-07:00*%
%TF.ProjectId,ComputerController,436f6d70-7574-4657-9243-6f6e74726f6c,rev?*%
%TF.SameCoordinates,Original*%
%TF.FileFunction,Legend,Top*%
%TF.FilePolarity,Positive*%
%FSLAX46Y46*%
G04 Gerber Fmt 4.6, Leading zero omitted, Abs format (unit mm)*
G04 Created by KiCad (PCBNEW 10.0.3) date 2026-06-29 21:10:13*
%MOMM*%
%LPD*%
G01*
G04 APERTURE LIST*
G04 Aperture macros list*
%AMRoundRect*
0 Rectangle with rounded corners*
0 $1 Rounding radius*
0 $2 $3 $4 $5 $6 $7 $8 $9 X,Y pos of 4 corners*
0 Add a 4 corners polygon primitive as box body*
4,1,4,$2,$3,$4,$5,$6,$7,$8,$9,$2,$3,0*
0 Add four circle primitives for the rounded corners*
1,1,$1+$1,$2,$3*
1,1,$1+$1,$4,$5*
1,1,$1+$1,$6,$7*
1,1,$1+$1,$8,$9*
0 Add four rect primitives between the rounded corners*
20,1,$1+$1,$2,$3,$4,$5,0*
20,1,$1+$1,$4,$5,$6,$7,0*
20,1,$1+$1,$6,$7,$8,$9,0*
20,1,$1+$1,$8,$9,$2,$3,0*%
G04 Aperture macros list end*
%ADD10C,0.150000*%
%ADD11C,0.120000*%
%ADD12R,1.700000X1.700000*%
%ADD13C,1.700000*%
%ADD14RoundRect,0.250000X0.350000X-0.350000X0.350000X0.350000X-0.350000X0.350000X-0.350000X-0.350000X0*%
%ADD15C,1.200000*%
%ADD16C,4.000000*%
%ADD17C,2.200000*%
%ADD18C,2.000000*%
%ADD19C,1.600000*%
%ADD20O,2.200000X1.600000*%
%ADD21C,2.100000*%
%ADD22R,2.000000X2.000000*%
%ADD23R,3.200000X2.000000*%
%ADD24RoundRect,0.250000X0.550000X-0.550000X0.550000X0.550000X-0.550000X0.550000X-0.550000X-0.550000X0*%
%ADD25RoundRect,0.250000X-0.350000X0.350000X-0.350000X-0.350000X0.350000X-0.350000X0.350000X0.350000X0*%
G04 APERTURE END LIST*
D10*
X221666666Y-83834819D02*
X221666666Y-84549104D01*
X221666666Y-84549104D02*
X221619047Y-84691961D01*
X221619047Y-84691961D02*
X221523809Y-84787200D01*
X221523809Y-84787200D02*
X221380952Y-84834819D01*
X221380952Y-84834819D02*
X221285714Y-84834819D01*
X222619047Y-83834819D02*
X222142857Y-83834819D01*
X222142857Y-83834819D02*
X222095238Y-84311009D01*
X222095238Y-84311009D02*
X222142857Y-84263390D01*
X222142857Y-84263390D02*
X222238095Y-84215771D01*
X222238095Y-84215771D02*
X222476190Y-84215771D01*
X222476190Y-84215771D02*
X222571428Y-84263390D01*
X222571428Y-84263390D02*
X222619047Y-84311009D01*
X222619047Y-84311009D02*
X222666666Y-84406247D01*
X222666666Y-84406247D02*
X222666666Y-84644342D01*
X222666666Y-84644342D02*
X222619047Y-84739580D01*
X222619047Y-84739580D02*
X222571428Y-84787200D01*
X222571428Y-84787200D02*
X222476190Y-84834819D01*
X222476190Y-84834819D02*
X222238095Y-84834819D01*
X222238095Y-84834819D02*
X222142857Y-84787200D01*
X222142857Y-84787200D02*
X222095238Y-84739580D01*
X171704819Y-81238094D02*
X170704819Y-81238094D01*
X170704819Y-81238094D02*
X170704819Y-80999999D01*
X170704819Y-80999999D02*
X170752438Y-80857142D01*
X170752438Y-80857142D02*
X170847676Y-80761904D01*
X170847676Y-80761904D02*
X170942914Y-80714285D01*
X170942914Y-80714285D02*
X171133390Y-80666666D01*
X171133390Y-80666666D02*
X171276247Y-80666666D01*
X171276247Y-80666666D02*
X171466723Y-80714285D01*
X171466723Y-80714285D02*
X171561961Y-80761904D01*
X171561961Y-80761904D02*
X171657200Y-80857142D01*
X171657200Y-80857142D02*
X171704819Y-80999999D01*
X171704819Y-80999999D02*
X171704819Y-81238094D01*
X170800057Y-80285713D02*
X170752438Y-80238094D01*
X170752438Y-80238094D02*
X170704819Y-80142856D01*
X170704819Y-80142856D02*
X170704819Y-79904761D01*
X170704819Y-79904761D02*
X170752438Y-79809523D01*
X170752438Y-79809523D02*
X170800057Y-79761904D01*
X170800057Y-79761904D02*
X170895295Y-79714285D01*
X170895295Y-79714285D02*
X170990533Y-79714285D01*
X170990533Y-79714285D02*
X171133390Y-79761904D01*
X171133390Y-79761904D02*
X171704819Y-80333332D01*
X171704819Y-80333332D02*
X171704819Y-79714285D01*
X141246667Y-95533200D02*
X141389524Y-95580819D01*
X141389524Y-95580819D02*
X141627619Y-95580819D01*
X141627619Y-95580819D02*
X141722857Y-95533200D01*
X141722857Y-95533200D02*
X141770476Y-95485580D01*
X141770476Y-95485580D02*
X141818095Y-95390342D01*
X141818095Y-95390342D02*
X141818095Y-95295104D01*
X141818095Y-95295104D02*
X141770476Y-95199866D01*
X141770476Y-95199866D02*
X141722857Y-95152247D01*
X141722857Y-95152247D02*
X141627619Y-95104628D01*
X141627619Y-95104628D02*
X141437143Y-95057009D01*
X141437143Y-95057009D02*
X141341905Y-95009390D01*
X141341905Y-95009390D02*
X141294286Y-94961771D01*
X141294286Y-94961771D02*
X141246667Y-94866533D01*
X141246667Y-94866533D02*
X141246667Y-94771295D01*
X141246667Y-94771295D02*
X141294286Y-94676057D01*
X141294286Y-94676057D02*
X141341905Y-94628438D01*
X141341905Y-94628438D02*
X141437143Y-94580819D01*
X141437143Y-94580819D02*
X141675238Y-94580819D01*
X141675238Y-94580819D02*
X141818095Y-94628438D01*
X142151429Y-94580819D02*
X142389524Y-95580819D01*
X142389524Y-95580819D02*
X142580000Y-94866533D01*
X142580000Y-94866533D02*
X142770476Y-95580819D01*
X142770476Y-95580819D02*
X143008572Y-94580819D01*
X143818095Y-94914152D02*
X143818095Y-95580819D01*
X143580000Y-94533200D02*
X143341905Y-95247485D01*
X143341905Y-95247485D02*
X143960952Y-95247485D01*
X83246667Y-95533200D02*
X83389524Y-95580819D01*
X83389524Y-95580819D02*
X83627619Y-95580819D01*
X83627619Y-95580819D02*
X83722857Y-95533200D01*
X83722857Y-95533200D02*
X83770476Y-95485580D01*
X83770476Y-95485580D02*
X83818095Y-95390342D01*
X83818095Y-95390342D02*
X83818095Y-95295104D01*
X83818095Y-95295104D02*
X83770476Y-95199866D01*
X83770476Y-95199866D02*
X83722857Y-95152247D01*
X83722857Y-95152247D02*
X83627619Y-95104628D01*
X83627619Y-95104628D02*
X83437143Y-95057009D01*
X83437143Y-95057009D02*
X83341905Y-95009390D01*
X83341905Y-95009390D02*
X83294286Y-94961771D01*
X83294286Y-94961771D02*
X83246667Y-94866533D01*
X83246667Y-94866533D02*
X83246667Y-94771295D01*
X83246667Y-94771295D02*
X83294286Y-94676057D01*
X83294286Y-94676057D02*
X83341905Y-94628438D01*
X83341905Y-94628438D02*
X83437143Y-94580819D01*
X83437143Y-94580819D02*
X83675238Y-94580819D01*
X83675238Y-94580819D02*
X83818095Y-94628438D01*
X84151429Y-94580819D02*
X84389524Y-95580819D01*
X84389524Y-95580819D02*
X84580000Y-94866533D01*
X84580000Y-94866533D02*
X84770476Y-95580819D01*
X84770476Y-95580819D02*
X85008572Y-94580819D01*
X85913333Y-95580819D02*
X85341905Y-95580819D01*
X85627619Y-95580819D02*
X85627619Y-94580819D01*
X85627619Y-94580819D02*
X85532381Y-94723676D01*
X85532381Y-94723676D02*
X85437143Y-94818914D01*
X85437143Y-94818914D02*
X85341905Y-94866533D01*
X121826667Y-95533200D02*
X121969524Y-95580819D01*
X121969524Y-95580819D02*
X122207619Y-95580819D01*
X122207619Y-95580819D02*
X122302857Y-95533200D01*
X122302857Y-95533200D02*
X122350476Y-95485580D01*
X122350476Y-95485580D02*
X122398095Y-95390342D01*
X122398095Y-95390342D02*
X122398095Y-95295104D01*
X122398095Y-95295104D02*
X122350476Y-95199866D01*
X122350476Y-95199866D02*
X122302857Y-95152247D01*
X122302857Y-95152247D02*
X122207619Y-95104628D01*
X122207619Y-95104628D02*
X122017143Y-95057009D01*
X122017143Y-95057009D02*
X121921905Y-95009390D01*
X121921905Y-95009390D02*
X121874286Y-94961771D01*
X121874286Y-94961771D02*
X121826667Y-94866533D01*
X121826667Y-94866533D02*
X121826667Y-94771295D01*
X121826667Y-94771295D02*
X121874286Y-94676057D01*
X121874286Y-94676057D02*
X121921905Y-94628438D01*
X121921905Y-94628438D02*
X122017143Y-94580819D01*
X122017143Y-94580819D02*
X122255238Y-94580819D01*
X122255238Y-94580819D02*
X122398095Y-94628438D01*
X122731429Y-94580819D02*
X122969524Y-95580819D01*
X122969524Y-95580819D02*
X123160000Y-94866533D01*
X123160000Y-94866533D02*
X123350476Y-95580819D01*
X123350476Y-95580819D02*
X123588572Y-94580819D01*
X123921905Y-94676057D02*
X123969524Y-94628438D01*
X123969524Y-94628438D02*
X124064762Y-94580819D01*
X124064762Y-94580819D02*
X124302857Y-94580819D01*
X124302857Y-94580819D02*
X124398095Y-94628438D01*
X124398095Y-94628438D02*
X124445714Y-94676057D01*
X124445714Y-94676057D02*
X124493333Y-94771295D01*
X124493333Y-94771295D02*
X124493333Y-94866533D01*
X124493333Y-94866533D02*
X124445714Y-95009390D01*
X124445714Y-95009390D02*
X123874286Y-95580819D01*
X123874286Y-95580819D02*
X124493333Y-95580819D01*
X143704819Y-123238094D02*
X142704819Y-123238094D01*
X142704819Y-123238094D02*
X142704819Y-122999999D01*
X142704819Y-122999999D02*
X142752438Y-122857142D01*
X142752438Y-122857142D02*
X142847676Y-122761904D01*
X142847676Y-122761904D02*
X142942914Y-122714285D01*
X142942914Y-122714285D02*
X143133390Y-122666666D01*
X143133390Y-122666666D02*
X143276247Y-122666666D01*
X143276247Y-122666666D02*
X143466723Y-122714285D01*
X143466723Y-122714285D02*
X143561961Y-122761904D01*
X143561961Y-122761904D02*
X143657200Y-122857142D01*
X143657200Y-122857142D02*
X143704819Y-122999999D01*
X143704819Y-122999999D02*
X143704819Y-123238094D01*
X142704819Y-122333332D02*
X142704819Y-121714285D01*
X142704819Y-121714285D02*
X143085771Y-122047618D01*
X143085771Y-122047618D02*
X143085771Y-121904761D01*
X143085771Y-121904761D02*
X143133390Y-121809523D01*
X143133390Y-121809523D02*
X143181009Y-121761904D01*
X143181009Y-121761904D02*
X143276247Y-121714285D01*
X143276247Y-121714285D02*
X143514342Y-121714285D01*
X143514342Y-121714285D02*
X143609580Y-121761904D01*
X143609580Y-121761904D02*
X143657200Y-121809523D01*
X143657200Y-121809523D02*
X143704819Y-121904761D01*
X143704819Y-121904761D02*
X143704819Y-122190475D01*
X143704819Y-122190475D02*
X143657200Y-122285713D01*
X143657200Y-122285713D02*
X143609580Y-122333332D01*
X225364819Y-90333333D02*
X226079104Y-90333333D01*
X226079104Y-90333333D02*
X226221961Y-90380952D01*
X226221961Y-90380952D02*
X226317200Y-90476190D01*
X226317200Y-90476190D02*
X226364819Y-90619047D01*
X226364819Y-90619047D02*
X226364819Y-90714285D01*
X225364819Y-89952380D02*
X225364819Y-89285714D01*
X225364819Y-89285714D02*
X226364819Y-89714285D01*
X154859580Y-122666666D02*
X154907200Y-122714285D01*
X154907200Y-122714285D02*
X154954819Y-122857142D01*
X154954819Y-122857142D02*
X154954819Y-122952380D01*
X154954819Y-122952380D02*
X154907200Y-123095237D01*
X154907200Y-123095237D02*
X154811961Y-123190475D01*
X154811961Y-123190475D02*
X154716723Y-123238094D01*
X154716723Y-123238094D02*
X154526247Y-123285713D01*
X154526247Y-123285713D02*
X154383390Y-123285713D01*
X154383390Y-123285713D02*
X154192914Y-123238094D01*
X154192914Y-123238094D02*
X154097676Y-123190475D01*
X154097676Y-123190475D02*
X154002438Y-123095237D01*
X154002438Y-123095237D02*
X153954819Y-122952380D01*
X153954819Y-122952380D02*
X153954819Y-122857142D01*
X153954819Y-122857142D02*
X154002438Y-122714285D01*
X154002438Y-122714285D02*
X154050057Y-122666666D01*
X153954819Y-122333332D02*
X153954819Y-121714285D01*
X153954819Y-121714285D02*
X154335771Y-122047618D01*
X154335771Y-122047618D02*
X154335771Y-121904761D01*
X154335771Y-121904761D02*
X154383390Y-121809523D01*
X154383390Y-121809523D02*
X154431009Y-121761904D01*
X154431009Y-121761904D02*
X154526247Y-121714285D01*
X154526247Y-121714285D02*
X154764342Y-121714285D01*
X154764342Y-121714285D02*
X154859580Y-121761904D01*
X154859580Y-121761904D02*
X154907200Y-121809523D01*
X154907200Y-121809523D02*
X154954819Y-121904761D01*
X154954819Y-121904761D02*
X154954819Y-122190475D01*
X154954819Y-122190475D02*
X154907200Y-122285713D01*
X154907200Y-122285713D02*
X154859580Y-122333332D01*
X102746667Y-95533200D02*
X102889524Y-95580819D01*
X102889524Y-95580819D02*
X103127619Y-95580819D01*
X103127619Y-95580819D02*
X103222857Y-95533200D01*
X103222857Y-95533200D02*
X103270476Y-95485580D01*
X103270476Y-95485580D02*
X103318095Y-95390342D01*
X103318095Y-95390342D02*
X103318095Y-95295104D01*
X103318095Y-95295104D02*
X103270476Y-95199866D01*
X103270476Y-95199866D02*
X103222857Y-95152247D01*
X103222857Y-95152247D02*
X103127619Y-95104628D01*
X103127619Y-95104628D02*
X102937143Y-95057009D01*
X102937143Y-95057009D02*
X102841905Y-95009390D01*
X102841905Y-95009390D02*
X102794286Y-94961771D01*
X102794286Y-94961771D02*
X102746667Y-94866533D01*
X102746667Y-94866533D02*
X102746667Y-94771295D01*
X102746667Y-94771295D02*
X102794286Y-94676057D01*
X102794286Y-94676057D02*
X102841905Y-94628438D01*
X102841905Y-94628438D02*
X102937143Y-94580819D01*
X102937143Y-94580819D02*
X103175238Y-94580819D01*
X103175238Y-94580819D02*
X103318095Y-94628438D01*
X103651429Y-94580819D02*
X103889524Y-95580819D01*
X103889524Y-95580819D02*
X104080000Y-94866533D01*
X104080000Y-94866533D02*
X104270476Y-95580819D01*
X104270476Y-95580819D02*
X104508572Y-94580819D01*
X104794286Y-94580819D02*
X105413333Y-94580819D01*
X105413333Y-94580819D02*
X105080000Y-94961771D01*
X105080000Y-94961771D02*
X105222857Y-94961771D01*
X105222857Y-94961771D02*
X105318095Y-95009390D01*
X105318095Y-95009390D02*
X105365714Y-95057009D01*
X105365714Y-95057009D02*
X105413333Y-95152247D01*
X105413333Y-95152247D02*
X105413333Y-95390342D01*
X105413333Y-95390342D02*
X105365714Y-95485580D01*
X105365714Y-95485580D02*
X105318095Y-95533200D01*
X105318095Y-95533200D02*
X105222857Y-95580819D01*
X105222857Y-95580819D02*
X104937143Y-95580819D01*
X104937143Y-95580819D02*
X104841905Y-95533200D01*
X104841905Y-95533200D02*
X104794286Y-95485580D01*
X141166666Y-117074819D02*
X141166666Y-117789104D01*
X141166666Y-117789104D02*
X141119047Y-117931961D01*
X141119047Y-117931961D02*
X141023809Y-118027200D01*
X141023809Y-118027200D02*
X140880952Y-118074819D01*
X140880952Y-118074819D02*
X140785714Y-118074819D01*
X142071428Y-117408152D02*
X142071428Y-118074819D01*
X141833333Y-117027200D02*
X141595238Y-117741485D01*
X141595238Y-117741485D02*
X142214285Y-117741485D01*
X213523333Y-82584819D02*
X213190000Y-82108628D01*
X212951905Y-82584819D02*
X212951905Y-81584819D01*
X212951905Y-81584819D02*
X213332857Y-81584819D01*
X213332857Y-81584819D02*
X213428095Y-81632438D01*
X213428095Y-81632438D02*
X213475714Y-81680057D01*
X213475714Y-81680057D02*
X213523333Y-81775295D01*
X213523333Y-81775295D02*
X213523333Y-81918152D01*
X213523333Y-81918152D02*
X213475714Y-82013390D01*
X213475714Y-82013390D02*
X213428095Y-82061009D01*
X213428095Y-82061009D02*
X213332857Y-82108628D01*
X213332857Y-82108628D02*
X212951905Y-82108628D01*
X214475714Y-82584819D02*
X213904286Y-82584819D01*
X214190000Y-82584819D02*
X214190000Y-81584819D01*
X214190000Y-81584819D02*
X214094762Y-81727676D01*
X214094762Y-81727676D02*
X213999524Y-81822914D01*
X213999524Y-81822914D02*
X213904286Y-81870533D01*
X166359580Y-79666666D02*
X166407200Y-79714285D01*
X166407200Y-79714285D02*
X166454819Y-79857142D01*
X166454819Y-79857142D02*
X166454819Y-79952380D01*
X166454819Y-79952380D02*
X166407200Y-80095237D01*
X166407200Y-80095237D02*
X166311961Y-80190475D01*
X166311961Y-80190475D02*
X166216723Y-80238094D01*
X166216723Y-80238094D02*
X166026247Y-80285713D01*
X166026247Y-80285713D02*
X165883390Y-80285713D01*
X165883390Y-80285713D02*
X165692914Y-80238094D01*
X165692914Y-80238094D02*
X165597676Y-80190475D01*
X165597676Y-80190475D02*
X165502438Y-80095237D01*
X165502438Y-80095237D02*
X165454819Y-79952380D01*
X165454819Y-79952380D02*
X165454819Y-79857142D01*
X165454819Y-79857142D02*
X165502438Y-79714285D01*
X165502438Y-79714285D02*
X165550057Y-79666666D01*
X165788152Y-78809523D02*
X166454819Y-78809523D01*
X165407200Y-79047618D02*
X166121485Y-79285713D01*
X166121485Y-79285713D02*
X166121485Y-78666666D01*
X187126667Y-51707200D02*
X187269524Y-51754819D01*
X187269524Y-51754819D02*
X187507619Y-51754819D01*
X187507619Y-51754819D02*
X187602857Y-51707200D01*
X187602857Y-51707200D02*
X187650476Y-51659580D01*
X187650476Y-51659580D02*
X187698095Y-51564342D01*
X187698095Y-51564342D02*
X187698095Y-51469104D01*
X187698095Y-51469104D02*
X187650476Y-51373866D01*
X187650476Y-51373866D02*
X187602857Y-51326247D01*
X187602857Y-51326247D02*
X187507619Y-51278628D01*
X187507619Y-51278628D02*
X187317143Y-51231009D01*
X187317143Y-51231009D02*
X187221905Y-51183390D01*
X187221905Y-51183390D02*
X187174286Y-51135771D01*
X187174286Y-51135771D02*
X187126667Y-51040533D01*
X187126667Y-51040533D02*
X187126667Y-50945295D01*
X187126667Y-50945295D02*
X187174286Y-50850057D01*
X187174286Y-50850057D02*
X187221905Y-50802438D01*
X187221905Y-50802438D02*
X187317143Y-50754819D01*
X187317143Y-50754819D02*
X187555238Y-50754819D01*
X187555238Y-50754819D02*
X187698095Y-50802438D01*
X188031429Y-50754819D02*
X188269524Y-51754819D01*
X188269524Y-51754819D02*
X188460000Y-51040533D01*
X188460000Y-51040533D02*
X188650476Y-51754819D01*
X188650476Y-51754819D02*
X188888572Y-50754819D01*
X189698095Y-50754819D02*
X189507619Y-50754819D01*
X189507619Y-50754819D02*
X189412381Y-50802438D01*
X189412381Y-50802438D02*
X189364762Y-50850057D01*
X189364762Y-50850057D02*
X189269524Y-50992914D01*
X189269524Y-50992914D02*
X189221905Y-51183390D01*
X189221905Y-51183390D02*
X189221905Y-51564342D01*
X189221905Y-51564342D02*
X189269524Y-51659580D01*
X189269524Y-51659580D02*
X189317143Y-51707200D01*
X189317143Y-51707200D02*
X189412381Y-51754819D01*
X189412381Y-51754819D02*
X189602857Y-51754819D01*
X189602857Y-51754819D02*
X189698095Y-51707200D01*
X189698095Y-51707200D02*
X189745714Y-51659580D01*
X189745714Y-51659580D02*
X189793333Y-51564342D01*
X189793333Y-51564342D02*
X189793333Y-51326247D01*
X189793333Y-51326247D02*
X189745714Y-51231009D01*
X189745714Y-51231009D02*
X189698095Y-51183390D01*
X189698095Y-51183390D02*
X189602857Y-51135771D01*
X189602857Y-51135771D02*
X189412381Y-51135771D01*
X189412381Y-51135771D02*
X189317143Y-51183390D01*
X189317143Y-51183390D02*
X189269524Y-51231009D01*
X189269524Y-51231009D02*
X189221905Y-51326247D01*
X166484819Y-116333333D02*
X167199104Y-116333333D01*
X167199104Y-116333333D02*
X167341961Y-116380952D01*
X167341961Y-116380952D02*
X167437200Y-116476190D01*
X167437200Y-116476190D02*
X167484819Y-116619047D01*
X167484819Y-116619047D02*
X167484819Y-116714285D01*
X166484819Y-115428571D02*
X166484819Y-115619047D01*
X166484819Y-115619047D02*
X166532438Y-115714285D01*
X166532438Y-115714285D02*
X166580057Y-115761904D01*
X166580057Y-115761904D02*
X166722914Y-115857142D01*
X166722914Y-115857142D02*
X166913390Y-115904761D01*
X166913390Y-115904761D02*
X167294342Y-115904761D01*
X167294342Y-115904761D02*
X167389580Y-115857142D01*
X167389580Y-115857142D02*
X167437200Y-115809523D01*
X167437200Y-115809523D02*
X167484819Y-115714285D01*
X167484819Y-115714285D02*
X167484819Y-115523809D01*
X167484819Y-115523809D02*
X167437200Y-115428571D01*
X167437200Y-115428571D02*
X167389580Y-115380952D01*
X167389580Y-115380952D02*
X167294342Y-115333333D01*
X167294342Y-115333333D02*
X167056247Y-115333333D01*
X167056247Y-115333333D02*
X166961009Y-115380952D01*
X166961009Y-115380952D02*
X166913390Y-115428571D01*
X166913390Y-115428571D02*
X166865771Y-115523809D01*
X166865771Y-115523809D02*
X166865771Y-115714285D01*
X166865771Y-115714285D02*
X166913390Y-115809523D01*
X166913390Y-115809523D02*
X166961009Y-115857142D01*
X166961009Y-115857142D02*
X167056247Y-115904761D01*
X102746667Y-117533200D02*
X102889524Y-117580819D01*
X102889524Y-117580819D02*
X103127619Y-117580819D01*
X103127619Y-117580819D02*
X103222857Y-117533200D01*
X103222857Y-117533200D02*
X103270476Y-117485580D01*
X103270476Y-117485580D02*
X103318095Y-117390342D01*
X103318095Y-117390342D02*
X103318095Y-117295104D01*
X103318095Y-117295104D02*
X103270476Y-117199866D01*
X103270476Y-117199866D02*
X103222857Y-117152247D01*
X103222857Y-117152247D02*
X103127619Y-117104628D01*
X103127619Y-117104628D02*
X102937143Y-117057009D01*
X102937143Y-117057009D02*
X102841905Y-117009390D01*
X102841905Y-117009390D02*
X102794286Y-116961771D01*
X102794286Y-116961771D02*
X102746667Y-116866533D01*
X102746667Y-116866533D02*
X102746667Y-116771295D01*
X102746667Y-116771295D02*
X102794286Y-116676057D01*
X102794286Y-116676057D02*
X102841905Y-116628438D01*
X102841905Y-116628438D02*
X102937143Y-116580819D01*
X102937143Y-116580819D02*
X103175238Y-116580819D01*
X103175238Y-116580819D02*
X103318095Y-116628438D01*
X103651429Y-116580819D02*
X103889524Y-117580819D01*
X103889524Y-117580819D02*
X104080000Y-116866533D01*
X104080000Y-116866533D02*
X104270476Y-117580819D01*
X104270476Y-117580819D02*
X104508572Y-116580819D01*
X105365714Y-116580819D02*
X104889524Y-116580819D01*
X104889524Y-116580819D02*
X104841905Y-117057009D01*
X104841905Y-117057009D02*
X104889524Y-117009390D01*
X104889524Y-117009390D02*
X104984762Y-116961771D01*
X104984762Y-116961771D02*
X105222857Y-116961771D01*
X105222857Y-116961771D02*
X105318095Y-117009390D01*
X105318095Y-117009390D02*
X105365714Y-117057009D01*
X105365714Y-117057009D02*
X105413333Y-117152247D01*
X105413333Y-117152247D02*
X105413333Y-117390342D01*
X105413333Y-117390342D02*
X105365714Y-117485580D01*
X105365714Y-117485580D02*
X105318095Y-117533200D01*
X105318095Y-117533200D02*
X105222857Y-117580819D01*
X105222857Y-117580819D02*
X104984762Y-117580819D01*
X104984762Y-117580819D02*
X104889524Y-117533200D01*
X104889524Y-117533200D02*
X104841905Y-117485580D01*
X162826666Y-42484819D02*
X162826666Y-43199104D01*
X162826666Y-43199104D02*
X162779047Y-43341961D01*
X162779047Y-43341961D02*
X162683809Y-43437200D01*
X162683809Y-43437200D02*
X162540952Y-43484819D01*
X162540952Y-43484819D02*
X162445714Y-43484819D01*
X163207619Y-42484819D02*
X163826666Y-42484819D01*
X163826666Y-42484819D02*
X163493333Y-42865771D01*
X163493333Y-42865771D02*
X163636190Y-42865771D01*
X163636190Y-42865771D02*
X163731428Y-42913390D01*
X163731428Y-42913390D02*
X163779047Y-42961009D01*
X163779047Y-42961009D02*
X163826666Y-43056247D01*
X163826666Y-43056247D02*
X163826666Y-43294342D01*
X163826666Y-43294342D02*
X163779047Y-43389580D01*
X163779047Y-43389580D02*
X163731428Y-43437200D01*
X163731428Y-43437200D02*
X163636190Y-43484819D01*
X163636190Y-43484819D02*
X163350476Y-43484819D01*
X163350476Y-43484819D02*
X163255238Y-43437200D01*
X163255238Y-43437200D02*
X163207619Y-43389580D01*
X206054819Y-78140745D02*
X205054819Y-78140745D01*
X205054819Y-78140745D02*
X205054819Y-77902650D01*
X205054819Y-77902650D02*
X205102438Y-77759793D01*
X205102438Y-77759793D02*
X205197676Y-77664555D01*
X205197676Y-77664555D02*
X205292914Y-77616936D01*
X205292914Y-77616936D02*
X205483390Y-77569317D01*
X205483390Y-77569317D02*
X205626247Y-77569317D01*
X205626247Y-77569317D02*
X205816723Y-77616936D01*
X205816723Y-77616936D02*
X205911961Y-77664555D01*
X205911961Y-77664555D02*
X206007200Y-77759793D01*
X206007200Y-77759793D02*
X206054819Y-77902650D01*
X206054819Y-77902650D02*
X206054819Y-78140745D01*
X206054819Y-76616936D02*
X206054819Y-77188364D01*
X206054819Y-76902650D02*
X205054819Y-76902650D01*
X205054819Y-76902650D02*
X205197676Y-76997888D01*
X205197676Y-76997888D02*
X205292914Y-77093126D01*
X205292914Y-77093126D02*
X205340533Y-77188364D01*
X172859580Y-127666666D02*
X172907200Y-127714285D01*
X172907200Y-127714285D02*
X172954819Y-127857142D01*
X172954819Y-127857142D02*
X172954819Y-127952380D01*
X172954819Y-127952380D02*
X172907200Y-128095237D01*
X172907200Y-128095237D02*
X172811961Y-128190475D01*
X172811961Y-128190475D02*
X172716723Y-128238094D01*
X172716723Y-128238094D02*
X172526247Y-128285713D01*
X172526247Y-128285713D02*
X172383390Y-128285713D01*
X172383390Y-128285713D02*
X172192914Y-128238094D01*
X172192914Y-128238094D02*
X172097676Y-128190475D01*
X172097676Y-128190475D02*
X172002438Y-128095237D01*
X172002438Y-128095237D02*
X171954819Y-127952380D01*
X171954819Y-127952380D02*
X171954819Y-127857142D01*
X171954819Y-127857142D02*
X172002438Y-127714285D01*
X172002438Y-127714285D02*
X172050057Y-127666666D01*
X172050057Y-127285713D02*
X172002438Y-127238094D01*
X172002438Y-127238094D02*
X171954819Y-127142856D01*
X171954819Y-127142856D02*
X171954819Y-126904761D01*
X171954819Y-126904761D02*
X172002438Y-126809523D01*
X172002438Y-126809523D02*
X172050057Y-126761904D01*
X172050057Y-126761904D02*
X172145295Y-126714285D01*
X172145295Y-126714285D02*
X172240533Y-126714285D01*
X172240533Y-126714285D02*
X172383390Y-126761904D01*
X172383390Y-126761904D02*
X172954819Y-127333332D01*
X172954819Y-127333332D02*
X172954819Y-126714285D01*
X179704819Y-128238094D02*
X178704819Y-128238094D01*
X178704819Y-128238094D02*
X178704819Y-127999999D01*
X178704819Y-127999999D02*
X178752438Y-127857142D01*
X178752438Y-127857142D02*
X178847676Y-127761904D01*
X178847676Y-127761904D02*
X178942914Y-127714285D01*
X178942914Y-127714285D02*
X179133390Y-127666666D01*
X179133390Y-127666666D02*
X179276247Y-127666666D01*
X179276247Y-127666666D02*
X179466723Y-127714285D01*
X179466723Y-127714285D02*
X179561961Y-127761904D01*
X179561961Y-127761904D02*
X179657200Y-127857142D01*
X179657200Y-127857142D02*
X179704819Y-127999999D01*
X179704819Y-127999999D02*
X179704819Y-128238094D01*
X179038152Y-126809523D02*
X179704819Y-126809523D01*
X178657200Y-127047618D02*
X179371485Y-127285713D01*
X179371485Y-127285713D02*
X179371485Y-126666666D01*
X215359580Y-77166666D02*
X215407200Y-77214285D01*
X215407200Y-77214285D02*
X215454819Y-77357142D01*
X215454819Y-77357142D02*
X215454819Y-77452380D01*
X215454819Y-77452380D02*
X215407200Y-77595237D01*
X215407200Y-77595237D02*
X215311961Y-77690475D01*
X215311961Y-77690475D02*
X215216723Y-77738094D01*
X215216723Y-77738094D02*
X215026247Y-77785713D01*
X215026247Y-77785713D02*
X214883390Y-77785713D01*
X214883390Y-77785713D02*
X214692914Y-77738094D01*
X214692914Y-77738094D02*
X214597676Y-77690475D01*
X214597676Y-77690475D02*
X214502438Y-77595237D01*
X214502438Y-77595237D02*
X214454819Y-77452380D01*
X214454819Y-77452380D02*
X214454819Y-77357142D01*
X214454819Y-77357142D02*
X214502438Y-77214285D01*
X214502438Y-77214285D02*
X214550057Y-77166666D01*
X215454819Y-76214285D02*
X215454819Y-76785713D01*
X215454819Y-76499999D02*
X214454819Y-76499999D01*
X214454819Y-76499999D02*
X214597676Y-76595237D01*
X214597676Y-76595237D02*
X214692914Y-76690475D01*
X214692914Y-76690475D02*
X214740533Y-76785713D01*
%TO.C,J5*%
D11*
X220620000Y-80730000D02*
X220620000Y-75540000D01*
X223380000Y-75540000D02*
X220620000Y-75540000D01*
X223380000Y-80730000D02*
X220620000Y-80730000D01*
X223380000Y-80730000D02*
X223380000Y-75540000D01*
X223380000Y-82000000D02*
X223380000Y-83380000D01*
X223380000Y-83380000D02*
X222000000Y-83380000D01*
%TO.C,D2*%
X172420000Y-80460000D02*
X176580000Y-80460000D01*
X172420000Y-80500000D02*
X176580000Y-80500000D01*
X172422000Y-80420000D02*
X176578000Y-80420000D01*
X172423000Y-80380000D02*
X176577000Y-80380000D01*
X172426000Y-80340000D02*
X176574000Y-80340000D01*
X172429000Y-80300000D02*
X173660000Y-80300000D01*
X172434000Y-80260000D02*
X173660000Y-80260000D01*
X172439000Y-80220000D02*
X173660000Y-80220000D01*
X172444000Y-80180000D02*
X173660000Y-80180000D01*
X172451000Y-80140000D02*
X173660000Y-80140000D01*
X172458000Y-80100000D02*
X173660000Y-80100000D01*
X172466000Y-80060000D02*
X173660000Y-80060000D01*
X172475000Y-80020000D02*
X173660000Y-80020000D01*
X172485000Y-79980000D02*
X173660000Y-79980000D01*
X172495000Y-79940000D02*
X173660000Y-79940000D01*
X172507000Y-79900000D02*
X173660000Y-79900000D01*
X172519000Y-79860000D02*
X173660000Y-79860000D01*
X172532000Y-79820000D02*
X173660000Y-79820000D01*
X172546000Y-79780000D02*
X173660000Y-79780000D01*
X172561000Y-79740000D02*
X173660000Y-79740000D01*
X172577000Y-79700000D02*
X173660000Y-79700000D01*
X172594000Y-79660000D02*
X173660000Y-79660000D01*
X172611000Y-79620000D02*
X173660000Y-79620000D01*
X172630000Y-79580000D02*
X173660000Y-79580000D01*
X172650000Y-79540000D02*
X173660000Y-79540000D01*
X172671000Y-79500000D02*
X173660000Y-79500000D01*
X172693000Y-79460000D02*
X173660000Y-79460000D01*
X172716000Y-79420000D02*
X173660000Y-79420000D01*
X172740000Y-79380000D02*
X173660000Y-79380000D01*
X172766000Y-79340000D02*
X173660000Y-79340000D01*
X172792000Y-79300000D02*
X173660000Y-79300000D01*
X172820000Y-79260000D02*
X173660000Y-79260000D01*
X172850000Y-79220000D02*
X173660000Y-79220000D01*
X172881000Y-79180000D02*
X173660000Y-79180000D01*
X172914000Y-79140000D02*
X173660000Y-79140000D01*
X172948000Y-79100000D02*
X173660000Y-79100000D01*
X172984000Y-79060000D02*
X173660000Y-79060000D01*
X173022000Y-79020000D02*
X173660000Y-79020000D01*
X173062000Y-78980000D02*
X173660000Y-78980000D01*
X173104000Y-78940000D02*
X173660000Y-78940000D01*
X173105000Y-82569801D02*
X173505000Y-82569801D01*
X173149000Y-78900000D02*
X173660000Y-78900000D01*
X173197000Y-78860000D02*
X173660000Y-78860000D01*
X173247000Y-78820000D02*
X173660000Y-78820000D01*
X173301000Y-78780000D02*
X173660000Y-78780000D01*
X173305000Y-82769801D02*
X173305000Y-82369801D01*
X173358000Y-78740000D02*
X173660000Y-78740000D01*
X173420000Y-78700000D02*
X173660000Y-78700000D01*
X173487000Y-78660000D02*
X175513000Y-78660000D01*
X173560000Y-78620000D02*
X175440000Y-78620000D01*
X173641000Y-78580000D02*
X175359000Y-78580000D01*
X173732000Y-78540000D02*
X175268000Y-78540000D01*
X173837000Y-78500000D02*
X175163000Y-78500000D01*
X173963000Y-78460000D02*
X175037000Y-78460000D01*
X174130000Y-78420000D02*
X174870000Y-78420000D01*
X175340000Y-78700000D02*
X175580000Y-78700000D01*
X175340000Y-78740000D02*
X175642000Y-78740000D01*
X175340000Y-78780000D02*
X175699000Y-78780000D01*
X175340000Y-78820000D02*
X175753000Y-78820000D01*
X175340000Y-78860000D02*
X175803000Y-78860000D01*
X175340000Y-78900000D02*
X175851000Y-78900000D01*
X175340000Y-78940000D02*
X175896000Y-78940000D01*
X175340000Y-78980000D02*
X175938000Y-78980000D01*
X175340000Y-79020000D02*
X175978000Y-79020000D01*
X175340000Y-79060000D02*
X176016000Y-79060000D01*
X175340000Y-79100000D02*
X176052000Y-79100000D01*
X175340000Y-79140000D02*
X176086000Y-79140000D01*
X175340000Y-79180000D02*
X176119000Y-79180000D01*
X175340000Y-79220000D02*
X176150000Y-79220000D01*
X175340000Y-79260000D02*
X176180000Y-79260000D01*
X175340000Y-79300000D02*
X176208000Y-79300000D01*
X175340000Y-79340000D02*
X176234000Y-79340000D01*
X175340000Y-79380000D02*
X176260000Y-79380000D01*
X175340000Y-79420000D02*
X176284000Y-79420000D01*
X175340000Y-79460000D02*
X176307000Y-79460000D01*
X175340000Y-79500000D02*
X176329000Y-79500000D01*
X175340000Y-79540000D02*
X176350000Y-79540000D01*
X175340000Y-79580000D02*
X176370000Y-79580000D01*
X175340000Y-79620000D02*
X176389000Y-79620000D01*
X175340000Y-79660000D02*
X176406000Y-79660000D01*
X175340000Y-79700000D02*
X176423000Y-79700000D01*
X175340000Y-79740000D02*
X176439000Y-79740000D01*
X175340000Y-79780000D02*
X176454000Y-79780000D01*
X175340000Y-79820000D02*
X176468000Y-79820000D01*
X175340000Y-79860000D02*
X176481000Y-79860000D01*
X175340000Y-79900000D02*
X176493000Y-79900000D01*
X175340000Y-79940000D02*
X176505000Y-79940000D01*
X175340000Y-79980000D02*
X176515000Y-79980000D01*
X175340000Y-80020000D02*
X176525000Y-80020000D01*
X175340000Y-80060000D02*
X176534000Y-80060000D01*
X175340000Y-80100000D02*
X176542000Y-80100000D01*
X175340000Y-80140000D02*
X176549000Y-80140000D01*
X175340000Y-80180000D02*
X176556000Y-80180000D01*
X175340000Y-80220000D02*
X176561000Y-80220000D01*
X175340000Y-80260000D02*
X176566000Y-80260000D01*
X175340000Y-80300000D02*
X176571000Y-80300000D01*
X176620000Y-80500000D02*
G75*
G02*
X172380000Y-80500000I-2120000J0D01*
G01*
X172380000Y-80500000D02*
G75*
G02*
X176620000Y-80500000I2120000J0D01*
G01*
%TO.C,SW4*%
X135595000Y-96015000D02*
X149565000Y-96015000D01*
X135595000Y-109985000D02*
X135595000Y-96015000D01*
X149565000Y-96015000D02*
X149565000Y-109985000D01*
X149565000Y-109985000D02*
X135595000Y-109985000D01*
%TO.C,SW1*%
X77595000Y-96015000D02*
X91565000Y-96015000D01*
X77595000Y-109985000D02*
X77595000Y-96015000D01*
X91565000Y-96015000D02*
X91565000Y-109985000D01*
X91565000Y-109985000D02*
X77595000Y-109985000D01*
%TO.C,SW2*%
X116175000Y-96015000D02*
X130145000Y-96015000D01*
X116175000Y-109985000D02*
X116175000Y-96015000D01*
X130145000Y-96015000D02*
X130145000Y-109985000D01*
X130145000Y-109985000D02*
X116175000Y-109985000D01*
%TO.C,D3*%
X144380000Y-118630000D02*
X145766000Y-118630000D01*
X144380000Y-126370000D02*
X144380000Y-118630000D01*
X145766000Y-126370000D02*
X144380000Y-126370000D01*
X148234000Y-118630000D02*
X149620000Y-118630000D01*
X149620000Y-118630000D02*
X149620000Y-126370000D01*
X149620000Y-126370000D02*
X148234000Y-126370000D01*
%TO.C,J7*%
X168470000Y-88670000D02*
X168470000Y-91330000D01*
X221870000Y-88670000D02*
X168470000Y-88670000D01*
X221870000Y-88670000D02*
X221870000Y-91330000D01*
X221870000Y-91330000D02*
X168470000Y-91330000D01*
X224470000Y-90000000D02*
X224470000Y-91330000D01*
X224470000Y-91330000D02*
X223140000Y-91330000D01*
%TO.C,C3*%
X150630000Y-119880000D02*
X150967000Y-119880000D01*
X150630000Y-125120000D02*
X150630000Y-119880000D01*
X150967000Y-125120000D02*
X150630000Y-125120000D01*
X153033000Y-119880000D02*
X153370000Y-119880000D01*
X153370000Y-119880000D02*
X153370000Y-125120000D01*
X153370000Y-125120000D02*
X153033000Y-125120000D01*
%TO.C,SW3*%
X97095000Y-96015000D02*
X111065000Y-96015000D01*
X97095000Y-109985000D02*
X97095000Y-96015000D01*
X111065000Y-96015000D02*
X111065000Y-109985000D01*
X111065000Y-109985000D02*
X97095000Y-109985000D01*
%TO.C,J4*%
X140120000Y-118620000D02*
X141500000Y-118620000D01*
X140120000Y-120000000D02*
X140120000Y-118620000D01*
X140120000Y-121270000D02*
X140120000Y-131540000D01*
X140120000Y-121270000D02*
X142880000Y-121270000D01*
X140120000Y-131540000D02*
X142880000Y-131540000D01*
X142880000Y-121270000D02*
X142880000Y-131540000D01*
%TO.C,R1*%
X210420000Y-83130000D02*
X216960000Y-83130000D01*
X210420000Y-83460000D02*
X210420000Y-83130000D01*
X210420000Y-85540000D02*
X210420000Y-85870000D01*
X210420000Y-85870000D02*
X216960000Y-85870000D01*
X216960000Y-83130000D02*
X216960000Y-83460000D01*
X216960000Y-85870000D02*
X216960000Y-85540000D01*
%TO.C,C4*%
X167130000Y-76880000D02*
X167467000Y-76880000D01*
X167130000Y-82120000D02*
X167130000Y-76880000D01*
X167467000Y-82120000D02*
X167130000Y-82120000D01*
X169533000Y-76880000D02*
X169870000Y-76880000D01*
X169870000Y-76880000D02*
X169870000Y-82120000D01*
X169870000Y-82120000D02*
X169533000Y-82120000D01*
%TO.C,SW6*%
X185360000Y-54400000D02*
X185960000Y-54400000D01*
X185660000Y-54700000D02*
X185360000Y-54400000D01*
X185960000Y-54400000D02*
X185660000Y-54700000D01*
X187060000Y-52600000D02*
X187060000Y-64400000D01*
X191160000Y-52600000D02*
X187060000Y-52600000D01*
X191160000Y-64400000D02*
X187060000Y-64400000D01*
X195160000Y-52600000D02*
X199260000Y-52600000D01*
X199260000Y-52600000D02*
X199260000Y-55000000D01*
X199260000Y-57200000D02*
X199260000Y-59800000D01*
X199260000Y-62000000D02*
X199260000Y-64400000D01*
X199260000Y-64400000D02*
X195160000Y-64400000D01*
X196160000Y-58500000D02*
G75*
G02*
X190160000Y-58500000I-3000000J0D01*
G01*
X190160000Y-58500000D02*
G75*
G02*
X196160000Y-58500000I3000000J0D01*
G01*
%TO.C,J6*%
X168470000Y-114670000D02*
X169800000Y-114670000D01*
X168470000Y-116000000D02*
X168470000Y-114670000D01*
X171070000Y-114670000D02*
X224470000Y-114670000D01*
X171070000Y-117330000D02*
X171070000Y-114670000D01*
X171070000Y-117330000D02*
X224470000Y-117330000D01*
X224470000Y-117330000D02*
X224470000Y-114670000D01*
%TO.C,SW5*%
X97095000Y-118015000D02*
X111065000Y-118015000D01*
X97095000Y-131985000D02*
X97095000Y-118015000D01*
X111065000Y-118015000D02*
X111065000Y-131985000D01*
X111065000Y-131985000D02*
X97095000Y-131985000D01*
%TO.C,J3*%
X161830000Y-47070000D02*
X161830000Y-80150000D01*
X161830000Y-47070000D02*
X164490000Y-47070000D01*
X161830000Y-80150000D02*
X164490000Y-80150000D01*
X163160000Y-44470000D02*
X164490000Y-44470000D01*
X164490000Y-44470000D02*
X164490000Y-45800000D01*
X164490000Y-47070000D02*
X164490000Y-80150000D01*
%TO.C,D1*%
X206770000Y-77362651D02*
X213230000Y-77362651D01*
X206770000Y-77402651D02*
X213230000Y-77402651D01*
X206771000Y-77322651D02*
X213229000Y-77322651D01*
X206772000Y-77282651D02*
X213228000Y-77282651D01*
X206774000Y-77242651D02*
X213226000Y-77242651D01*
X206776000Y-77202651D02*
X213224000Y-77202651D01*
X206779000Y-77162651D02*
X208960000Y-77162651D01*
X206782000Y-77122651D02*
X208960000Y-77122651D01*
X206786000Y-77082651D02*
X208960000Y-77082651D01*
X206790000Y-77042651D02*
X208960000Y-77042651D01*
X206795000Y-77002651D02*
X208960000Y-77002651D01*
X206800000Y-76962651D02*
X208960000Y-76962651D01*
X206805000Y-76922651D02*
X208960000Y-76922651D01*
X206812000Y-76882651D02*
X208960000Y-76882651D01*
X206818000Y-76842651D02*
X208960000Y-76842651D01*
X206826000Y-76802651D02*
X208960000Y-76802651D01*
X206833000Y-76762651D02*
X208960000Y-76762651D01*
X206841000Y-76722651D02*
X208960000Y-76722651D01*
X206850000Y-76682651D02*
X208960000Y-76682651D01*
X206860000Y-76642651D02*
X208960000Y-76642651D01*
X206869000Y-76602651D02*
X208960000Y-76602651D01*
X206880000Y-76562651D02*
X208960000Y-76562651D01*
X206891000Y-76522651D02*
X208960000Y-76522651D01*
X206902000Y-76482651D02*
X208960000Y-76482651D01*
X206914000Y-76442651D02*
X208960000Y-76442651D01*
X206927000Y-76402651D02*
X208960000Y-76402651D01*
X206940000Y-76362651D02*
X208960000Y-76362651D01*
X206953000Y-76322651D02*
X208960000Y-76322651D01*
X206968000Y-76282651D02*
X208960000Y-76282651D01*
X206983000Y-76242651D02*
X208960000Y-76242651D01*
X206998000Y-76202651D02*
X208960000Y-76202651D01*
X207014000Y-76162651D02*
X208960000Y-76162651D01*
X207031000Y-76122651D02*
X208960000Y-76122651D01*
X207048000Y-76082651D02*
X208960000Y-76082651D01*
X207066000Y-76042651D02*
X208960000Y-76042651D01*
X207085000Y-76002651D02*
X208960000Y-76002651D01*
X207104000Y-75962651D02*
X208960000Y-75962651D01*
X207124000Y-75922651D02*
X208960000Y-75922651D01*
X207145000Y-75882651D02*
X208960000Y-75882651D01*
X207166000Y-75842651D02*
X208960000Y-75842651D01*
X207188000Y-75802651D02*
X208960000Y-75802651D01*
X207211000Y-75762651D02*
X208960000Y-75762651D01*
X207235000Y-75722651D02*
X208960000Y-75722651D01*
X207259000Y-75682651D02*
X208960000Y-75682651D01*
X207284000Y-75642651D02*
X208960000Y-75642651D01*
X207310000Y-75602651D02*
X208960000Y-75602651D01*
X207337000Y-75562651D02*
X208960000Y-75562651D01*
X207364000Y-75522651D02*
X208960000Y-75522651D01*
X207393000Y-75482651D02*
X208960000Y-75482651D01*
X207423000Y-75442651D02*
X208960000Y-75442651D01*
X207453000Y-75402651D02*
X208960000Y-75402651D01*
X207484000Y-75362651D02*
X208960000Y-75362651D01*
X207517000Y-75322651D02*
X208960000Y-75322651D01*
X207550000Y-75282651D02*
X208960000Y-75282651D01*
X207585000Y-75242651D02*
X208960000Y-75242651D01*
X207621000Y-75202651D02*
X208960000Y-75202651D01*
X207658000Y-75162651D02*
X208960000Y-75162651D01*
X207696000Y-75122651D02*
X208960000Y-75122651D01*
X207736000Y-75082651D02*
X212264000Y-75082651D01*
X207777000Y-75042651D02*
X212223000Y-75042651D01*
X207819000Y-75002651D02*
X212181000Y-75002651D01*
X207846000Y-80587892D02*
X208476000Y-80587892D01*
X207863000Y-74962651D02*
X212137000Y-74962651D01*
X207909000Y-74922651D02*
X212091000Y-74922651D01*
X207956000Y-74882651D02*
X212044000Y-74882651D01*
X208005000Y-74842651D02*
X211995000Y-74842651D01*
X208057000Y-74802651D02*
X211943000Y-74802651D01*
X208110000Y-74762651D02*
X211890000Y-74762651D01*
X208161000Y-80902892D02*
X208161000Y-80272892D01*
X208166000Y-74722651D02*
X211834000Y-74722651D01*
X208225000Y-74682651D02*
X211775000Y-74682651D01*
X208286000Y-74642651D02*
X211714000Y-74642651D01*
X208351000Y-74602651D02*
X211649000Y-74602651D01*
X208419000Y-74562651D02*
X211581000Y-74562651D01*
X208491000Y-74522651D02*
X211509000Y-74522651D01*
X208568000Y-74482651D02*
X211432000Y-74482651D01*
X208650000Y-74442651D02*
X211350000Y-74442651D01*
X208739000Y-74402651D02*
X211261000Y-74402651D01*
X208835000Y-74362651D02*
X211165000Y-74362651D01*
X208942000Y-74322651D02*
X211058000Y-74322651D01*
X209061000Y-74282651D02*
X210939000Y-74282651D01*
X209199000Y-74242651D02*
X210801000Y-74242651D01*
X209367000Y-74202651D02*
X210633000Y-74202651D01*
X209598000Y-74162651D02*
X210402000Y-74162651D01*
X211040000Y-75122651D02*
X212304000Y-75122651D01*
X211040000Y-75162651D02*
X212342000Y-75162651D01*
X211040000Y-75202651D02*
X212379000Y-75202651D01*
X211040000Y-75242651D02*
X212415000Y-75242651D01*
X211040000Y-75282651D02*
X212450000Y-75282651D01*
X211040000Y-75322651D02*
X212483000Y-75322651D01*
X211040000Y-75362651D02*
X212516000Y-75362651D01*
X211040000Y-75402651D02*
X212547000Y-75402651D01*
X211040000Y-75442651D02*
X212577000Y-75442651D01*
X211040000Y-75482651D02*
X212607000Y-75482651D01*
X211040000Y-75522651D02*
X212636000Y-75522651D01*
X211040000Y-75562651D02*
X212663000Y-75562651D01*
X211040000Y-75602651D02*
X212690000Y-75602651D01*
X211040000Y-75642651D02*
X212716000Y-75642651D01*
X211040000Y-75682651D02*
X212741000Y-75682651D01*
X211040000Y-75722651D02*
X212765000Y-75722651D01*
X211040000Y-75762651D02*
X212789000Y-75762651D01*
X211040000Y-75802651D02*
X212812000Y-75802651D01*
X211040000Y-75842651D02*
X212834000Y-75842651D01*
X211040000Y-75882651D02*
X212855000Y-75882651D01*
X211040000Y-75922651D02*
X212876000Y-75922651D01*
X211040000Y-75962651D02*
X212896000Y-75962651D01*
X211040000Y-76002651D02*
X212915000Y-76002651D01*
X211040000Y-76042651D02*
X212934000Y-76042651D01*
X211040000Y-76082651D02*
X212952000Y-76082651D01*
X211040000Y-76122651D02*
X212969000Y-76122651D01*
X211040000Y-76162651D02*
X212986000Y-76162651D01*
X211040000Y-76202651D02*
X213002000Y-76202651D01*
X211040000Y-76242651D02*
X213017000Y-76242651D01*
X211040000Y-76282651D02*
X213032000Y-76282651D01*
X211040000Y-76322651D02*
X213047000Y-76322651D01*
X211040000Y-76362651D02*
X213060000Y-76362651D01*
X211040000Y-76402651D02*
X213073000Y-76402651D01*
X211040000Y-76442651D02*
X213086000Y-76442651D01*
X211040000Y-76482651D02*
X213098000Y-76482651D01*
X211040000Y-76522651D02*
X213109000Y-76522651D01*
X211040000Y-76562651D02*
X213120000Y-76562651D01*
X211040000Y-76602651D02*
X213131000Y-76602651D01*
X211040000Y-76642651D02*
X213140000Y-76642651D01*
X211040000Y-76682651D02*
X213150000Y-76682651D01*
X211040000Y-76722651D02*
X213159000Y-76722651D01*
X211040000Y-76762651D02*
X213167000Y-76762651D01*
X211040000Y-76802651D02*
X213174000Y-76802651D01*
X211040000Y-76842651D02*
X213182000Y-76842651D01*
X211040000Y-76882651D02*
X213188000Y-76882651D01*
X211040000Y-76922651D02*
X213195000Y-76922651D01*
X211040000Y-76962651D02*
X213200000Y-76962651D01*
X211040000Y-77002651D02*
X213205000Y-77002651D01*
X211040000Y-77042651D02*
X213210000Y-77042651D01*
X211040000Y-77082651D02*
X213214000Y-77082651D01*
X211040000Y-77122651D02*
X213218000Y-77122651D01*
X211040000Y-77162651D02*
X213221000Y-77162651D01*
X213270000Y-77402651D02*
G75*
G02*
X206730000Y-77402651I-3270000J0D01*
G01*
X206730000Y-77402651D02*
G75*
G02*
X213270000Y-77402651I3270000J0D01*
G01*
%TO.C,C2*%
X168630000Y-124880000D02*
X168967000Y-124880000D01*
X168630000Y-130120000D02*
X168630000Y-124880000D01*
X168967000Y-130120000D02*
X168630000Y-130120000D01*
X171033000Y-124880000D02*
X171370000Y-124880000D01*
X171370000Y-124880000D02*
X171370000Y-130120000D01*
X171370000Y-130120000D02*
X171033000Y-130120000D01*
%TO.C,D4*%
X175160000Y-127700000D02*
X173929000Y-127700000D01*
X175160000Y-127740000D02*
X173934000Y-127740000D01*
X175160000Y-127780000D02*
X173939000Y-127780000D01*
X175160000Y-127820000D02*
X173944000Y-127820000D01*
X175160000Y-127860000D02*
X173951000Y-127860000D01*
X175160000Y-127900000D02*
X173958000Y-127900000D01*
X175160000Y-127940000D02*
X173966000Y-127940000D01*
X175160000Y-127980000D02*
X173975000Y-127980000D01*
X175160000Y-128020000D02*
X173985000Y-128020000D01*
X175160000Y-128060000D02*
X173995000Y-128060000D01*
X175160000Y-128100000D02*
X174007000Y-128100000D01*
X175160000Y-128140000D02*
X174019000Y-128140000D01*
X175160000Y-128180000D02*
X174032000Y-128180000D01*
X175160000Y-128220000D02*
X174046000Y-128220000D01*
X175160000Y-128260000D02*
X174061000Y-128260000D01*
X175160000Y-128300000D02*
X174077000Y-128300000D01*
X175160000Y-128340000D02*
X174094000Y-128340000D01*
X175160000Y-128380000D02*
X174111000Y-128380000D01*
X175160000Y-128420000D02*
X174130000Y-128420000D01*
X175160000Y-128460000D02*
X174150000Y-128460000D01*
X175160000Y-128500000D02*
X174171000Y-128500000D01*
X175160000Y-128540000D02*
X174193000Y-128540000D01*
X175160000Y-128580000D02*
X174216000Y-128580000D01*
X175160000Y-128620000D02*
X174240000Y-128620000D01*
X175160000Y-128660000D02*
X174266000Y-128660000D01*
X175160000Y-128700000D02*
X174292000Y-128700000D01*
X175160000Y-128740000D02*
X174320000Y-128740000D01*
X175160000Y-128780000D02*
X174350000Y-128780000D01*
X175160000Y-128820000D02*
X174381000Y-128820000D01*
X175160000Y-128860000D02*
X174414000Y-128860000D01*
X175160000Y-128900000D02*
X174448000Y-128900000D01*
X175160000Y-128940000D02*
X174484000Y-128940000D01*
X175160000Y-128980000D02*
X174522000Y-128980000D01*
X175160000Y-129020000D02*
X174562000Y-129020000D01*
X175160000Y-129060000D02*
X174604000Y-129060000D01*
X175160000Y-129100000D02*
X174649000Y-129100000D01*
X175160000Y-129140000D02*
X174697000Y-129140000D01*
X175160000Y-129180000D02*
X174747000Y-129180000D01*
X175160000Y-129220000D02*
X174801000Y-129220000D01*
X175160000Y-129260000D02*
X174858000Y-129260000D01*
X175160000Y-129300000D02*
X174920000Y-129300000D01*
X176370000Y-129580000D02*
X175630000Y-129580000D01*
X176537000Y-129540000D02*
X175463000Y-129540000D01*
X176663000Y-129500000D02*
X175337000Y-129500000D01*
X176768000Y-129460000D02*
X175232000Y-129460000D01*
X176859000Y-129420000D02*
X175141000Y-129420000D01*
X176940000Y-129380000D02*
X175060000Y-129380000D01*
X177013000Y-129340000D02*
X174987000Y-129340000D01*
X177080000Y-129300000D02*
X176840000Y-129300000D01*
X177142000Y-129260000D02*
X176840000Y-129260000D01*
X177195000Y-125230199D02*
X177195000Y-125630199D01*
X177199000Y-129220000D02*
X176840000Y-129220000D01*
X177253000Y-129180000D02*
X176840000Y-129180000D01*
X177303000Y-129140000D02*
X176840000Y-129140000D01*
X177351000Y-129100000D02*
X176840000Y-129100000D01*
X177395000Y-125430199D02*
X176995000Y-125430199D01*
X177396000Y-129060000D02*
X176840000Y-129060000D01*
X177438000Y-129020000D02*
X176840000Y-129020000D01*
X177478000Y-128980000D02*
X176840000Y-128980000D01*
X177516000Y-128940000D02*
X176840000Y-128940000D01*
X177552000Y-128900000D02*
X176840000Y-128900000D01*
X177586000Y-128860000D02*
X176840000Y-128860000D01*
X177619000Y-128820000D02*
X176840000Y-128820000D01*
X177650000Y-128780000D02*
X176840000Y-128780000D01*
X177680000Y-128740000D02*
X176840000Y-128740000D01*
X177708000Y-128700000D02*
X176840000Y-128700000D01*
X177734000Y-128660000D02*
X176840000Y-128660000D01*
X177760000Y-128620000D02*
X176840000Y-128620000D01*
X177784000Y-128580000D02*
X176840000Y-128580000D01*
X177807000Y-128540000D02*
X176840000Y-128540000D01*
X177829000Y-128500000D02*
X176840000Y-128500000D01*
X177850000Y-128460000D02*
X176840000Y-128460000D01*
X177870000Y-128420000D02*
X176840000Y-128420000D01*
X177889000Y-128380000D02*
X176840000Y-128380000D01*
X177906000Y-128340000D02*
X176840000Y-128340000D01*
X177923000Y-128300000D02*
X176840000Y-128300000D01*
X177939000Y-128260000D02*
X176840000Y-128260000D01*
X177954000Y-128220000D02*
X176840000Y-128220000D01*
X177968000Y-128180000D02*
X176840000Y-128180000D01*
X177981000Y-128140000D02*
X176840000Y-128140000D01*
X177993000Y-128100000D02*
X176840000Y-128100000D01*
X178005000Y-128060000D02*
X176840000Y-128060000D01*
X178015000Y-128020000D02*
X176840000Y-128020000D01*
X178025000Y-127980000D02*
X176840000Y-127980000D01*
X178034000Y-127940000D02*
X176840000Y-127940000D01*
X178042000Y-127900000D02*
X176840000Y-127900000D01*
X178049000Y-127860000D02*
X176840000Y-127860000D01*
X178056000Y-127820000D02*
X176840000Y-127820000D01*
X178061000Y-127780000D02*
X176840000Y-127780000D01*
X178066000Y-127740000D02*
X176840000Y-127740000D01*
X178071000Y-127700000D02*
X176840000Y-127700000D01*
X178074000Y-127660000D02*
X173926000Y-127660000D01*
X178077000Y-127620000D02*
X173923000Y-127620000D01*
X178078000Y-127580000D02*
X173922000Y-127580000D01*
X178080000Y-127500000D02*
X173920000Y-127500000D01*
X178080000Y-127540000D02*
X173920000Y-127540000D01*
X178120000Y-127500000D02*
G75*
G02*
X173880000Y-127500000I-2120000J0D01*
G01*
X173880000Y-127500000D02*
G75*
G02*
X178120000Y-127500000I2120000J0D01*
G01*
%TO.C,C1*%
X216130000Y-74380000D02*
X216467000Y-74380000D01*
X216130000Y-79620000D02*
X216130000Y-74380000D01*
X216467000Y-79620000D02*
X216130000Y-79620000D01*
X218533000Y-74380000D02*
X218870000Y-74380000D01*
X218870000Y-74380000D02*
X218870000Y-79620000D01*
X218870000Y-79620000D02*
X218533000Y-79620000D01*
%TD*%
%LPC*%
D12*
%TO.C,J5*%
X222000000Y-82000000D03*
D13*
X222000000Y-79460000D03*
X222000000Y-76920000D03*
%TD*%
D14*
%TO.C,D2*%
X174500000Y-81500000D03*
D15*
X174500000Y-79500000D03*
%TD*%
D13*
%TO.C,SW4*%
X137500000Y-103000000D03*
D16*
X142580000Y-103000000D03*
D13*
X147660000Y-103000000D03*
D17*
X145120000Y-97920000D03*
X138770000Y-100460000D03*
%TD*%
D13*
%TO.C,SW1*%
X79500000Y-103000000D03*
D16*
X84580000Y-103000000D03*
D13*
X89660000Y-103000000D03*
D17*
X87120000Y-97920000D03*
X80770000Y-100460000D03*
%TD*%
D13*
%TO.C,SW2*%
X118080000Y-103000000D03*
D16*
X123160000Y-103000000D03*
D13*
X128240000Y-103000000D03*
D17*
X125700000Y-97920000D03*
X119350000Y-100460000D03*
%TD*%
D18*
%TO.C,D3*%
X147000000Y-126250000D03*
X147000000Y-118750000D03*
%TD*%
D12*
%TO.C,J7*%
X223140000Y-90000000D03*
D13*
X220600000Y-90000000D03*
X218060000Y-90000000D03*
X215520000Y-90000000D03*
X212980000Y-90000000D03*
X210440000Y-90000000D03*
X207900000Y-90000000D03*
X205360000Y-90000000D03*
X202820000Y-90000000D03*
X200280000Y-90000000D03*
X197740000Y-90000000D03*
X195200000Y-90000000D03*
X192660000Y-90000000D03*
X190120000Y-90000000D03*
X187580000Y-90000000D03*
X185040000Y-90000000D03*
X182500000Y-90000000D03*
X179960000Y-90000000D03*
X177420000Y-90000000D03*
X174880000Y-90000000D03*
X172340000Y-90000000D03*
X169800000Y-90000000D03*
%TD*%
D19*
%TO.C,C3*%
X152000000Y-120000000D03*
X152000000Y-125000000D03*
%TD*%
D13*
%TO.C,SW3*%
X99000000Y-103000000D03*
D16*
X104080000Y-103000000D03*
D13*
X109160000Y-103000000D03*
D17*
X106620000Y-97920000D03*
X100270000Y-100460000D03*
%TD*%
D12*
%TO.C,J4*%
X141500000Y-120000000D03*
D13*
X141500000Y-122540000D03*
X141500000Y-125080000D03*
X141500000Y-127620000D03*
X141500000Y-130160000D03*
%TD*%
D19*
%TO.C,R1*%
X209880000Y-84500000D03*
X217500000Y-84500000D03*
%TD*%
%TO.C,C4*%
X168500000Y-82000000D03*
X168500000Y-77000000D03*
%TD*%
D20*
%TO.C,SW6*%
X188660000Y-58500000D03*
D21*
X193160000Y-58500000D03*
D22*
X185660000Y-56000000D03*
D18*
X185660000Y-61000000D03*
X185660000Y-58500000D03*
D23*
X193160000Y-52900000D03*
X193160000Y-64100000D03*
D18*
X200160000Y-56000000D03*
X200160000Y-61000000D03*
%TD*%
D12*
%TO.C,J6*%
X169800000Y-116000000D03*
D13*
X172340000Y-116000000D03*
X174880000Y-116000000D03*
X177420000Y-116000000D03*
X179960000Y-116000000D03*
X182500000Y-116000000D03*
X185040000Y-116000000D03*
X187580000Y-116000000D03*
X190120000Y-116000000D03*
X192660000Y-116000000D03*
X195200000Y-116000000D03*
X197740000Y-116000000D03*
X200280000Y-116000000D03*
X202820000Y-116000000D03*
X205360000Y-116000000D03*
X207900000Y-116000000D03*
X210440000Y-116000000D03*
X212980000Y-116000000D03*
X215520000Y-116000000D03*
X218060000Y-116000000D03*
X220600000Y-116000000D03*
X223140000Y-116000000D03*
%TD*%
%TO.C,SW5*%
X99000000Y-125000000D03*
D16*
X104080000Y-125000000D03*
D13*
X109160000Y-125000000D03*
D17*
X106620000Y-119920000D03*
X100270000Y-122460000D03*
%TD*%
D12*
%TO.C,J3*%
X163160000Y-45800000D03*
D13*
X163160000Y-48340000D03*
X163160000Y-50880000D03*
X163160000Y-53420000D03*
X163160000Y-55960000D03*
X163160000Y-58500000D03*
X163160000Y-61040000D03*
X163160000Y-63580000D03*
X163160000Y-66120000D03*
X163160000Y-68660000D03*
X163160000Y-71200000D03*
X163160000Y-73740000D03*
X163160000Y-76280000D03*
X163160000Y-78820000D03*
%TD*%
D24*
%TO.C,D1*%
X210000000Y-78652651D03*
D19*
X210000000Y-76152651D03*
%TD*%
%TO.C,C2*%
X170000000Y-125000000D03*
X170000000Y-130000000D03*
%TD*%
D25*
%TO.C,D4*%
X176000000Y-126500000D03*
D15*
X176000000Y-128500000D03*
%TD*%
D19*
%TO.C,C1*%
X217500000Y-79500000D03*
X217500000Y-74500000D03*
%TD*%
%LPD*%
M02*
