%TF.GenerationSoftware,KiCad,Pcbnew,10.0.3*%
%TF.CreationDate,2026-06-29T21:10:13-07:00*%
%TF.ProjectId,ComputerController,436f6d70-7574-4657-9243-6f6e74726f6c,rev?*%
%TF.SameCoordinates,Original*%
%TF.FileFunction,Legend,Bot*%
%TF.FilePolarity,Positive*%
%FSLAX46Y46*%
G04 Gerber Fmt 4.6, Leading zero omitted, Abs format (unit mm)*
G04 Created by KiCad (PCBNEW 10.0.3) date 2026-06-29 21:10:13*
%MOMM*%
%LPD*%
G01*
G04 APERTURE LIST*
G04 Aperture macros list*
%AMRoundRect*
0 Rectangle with rounded corners*
0 $1 Rounding radius*
0 $2 $3 $4 $5 $6 $7 $8 $9 X,Y pos of 4 corners*
0 Add a 4 corners polygon primitive as box body*
4,1,4,$2,$3,$4,$5,$6,$7,$8,$9,$2,$3,0*
0 Add four circle primitives for the rounded corners*
1,1,$1+$1,$2,$3*
1,1,$1+$1,$4,$5*
1,1,$1+$1,$6,$7*
1,1,$1+$1,$8,$9*
0 Add four rect primitives between the rounded corners*
20,1,$1+$1,$2,$3,$4,$5,0*
20,1,$1+$1,$4,$5,$6,$7,0*
20,1,$1+$1,$6,$7,$8,$9,0*
20,1,$1+$1,$8,$9,$2,$3,0*%
G04 Aperture macros list end*
%ADD10R,1.700000X1.700000*%
%ADD11C,1.700000*%
%ADD12RoundRect,0.250000X0.350000X-0.350000X0.350000X0.350000X-0.350000X0.350000X-0.350000X-0.350000X0*%
%ADD13C,1.200000*%
%ADD14C,4.000000*%
%ADD15C,2.200000*%
%ADD16C,2.000000*%
%ADD17C,1.600000*%
%ADD18O,2.200000X1.600000*%
%ADD19C,2.100000*%
%ADD20R,2.000000X2.000000*%
%ADD21R,3.200000X2.000000*%
%ADD22RoundRect,0.250000X0.550000X-0.550000X0.550000X0.550000X-0.550000X0.550000X-0.550000X-0.550000X0*%
%ADD23RoundRect,0.250000X-0.350000X0.350000X-0.350000X-0.350000X0.350000X-0.350000X0.350000X0.350000X0*%
G04 APERTURE END LIST*
%LPC*%
D10*
%TO.C,J5*%
X222000000Y-82000000D03*
D11*
X222000000Y-79460000D03*
X222000000Y-76920000D03*
%TD*%
D12*
%TO.C,D2*%
X174500000Y-81500000D03*
D13*
X174500000Y-79500000D03*
%TD*%
D11*
%TO.C,SW4*%
X137500000Y-103000000D03*
D14*
X142580000Y-103000000D03*
D11*
X147660000Y-103000000D03*
D15*
X145120000Y-97920000D03*
X138770000Y-100460000D03*
%TD*%
D11*
%TO.C,SW1*%
X79500000Y-103000000D03*
D14*
X84580000Y-103000000D03*
D11*
X89660000Y-103000000D03*
D15*
X87120000Y-97920000D03*
X80770000Y-100460000D03*
%TD*%
D11*
%TO.C,SW2*%
X118080000Y-103000000D03*
D14*
X123160000Y-103000000D03*
D11*
X128240000Y-103000000D03*
D15*
X125700000Y-97920000D03*
X119350000Y-100460000D03*
%TD*%
D16*
%TO.C,D3*%
X147000000Y-126250000D03*
X147000000Y-118750000D03*
%TD*%
D10*
%TO.C,J7*%
X223140000Y-90000000D03*
D11*
X220600000Y-90000000D03*
X218060000Y-90000000D03*
X215520000Y-90000000D03*
X212980000Y-90000000D03*
X210440000Y-90000000D03*
X207900000Y-90000000D03*
X205360000Y-90000000D03*
X202820000Y-90000000D03*
X200280000Y-90000000D03*
X197740000Y-90000000D03*
X195200000Y-90000000D03*
X192660000Y-90000000D03*
X190120000Y-90000000D03*
X187580000Y-90000000D03*
X185040000Y-90000000D03*
X182500000Y-90000000D03*
X179960000Y-90000000D03*
X177420000Y-90000000D03*
X174880000Y-90000000D03*
X172340000Y-90000000D03*
X169800000Y-90000000D03*
%TD*%
D17*
%TO.C,C3*%
X152000000Y-120000000D03*
X152000000Y-125000000D03*
%TD*%
D11*
%TO.C,SW3*%
X99000000Y-103000000D03*
D14*
X104080000Y-103000000D03*
D11*
X109160000Y-103000000D03*
D15*
X106620000Y-97920000D03*
X100270000Y-100460000D03*
%TD*%
D10*
%TO.C,J4*%
X141500000Y-120000000D03*
D11*
X141500000Y-122540000D03*
X141500000Y-125080000D03*
X141500000Y-127620000D03*
X141500000Y-130160000D03*
%TD*%
D17*
%TO.C,R1*%
X209880000Y-84500000D03*
X217500000Y-84500000D03*
%TD*%
%TO.C,C4*%
X168500000Y-82000000D03*
X168500000Y-77000000D03*
%TD*%
D18*
%TO.C,SW6*%
X188660000Y-58500000D03*
D19*
X193160000Y-58500000D03*
D20*
X185660000Y-56000000D03*
D16*
X185660000Y-61000000D03*
X185660000Y-58500000D03*
D21*
X193160000Y-52900000D03*
X193160000Y-64100000D03*
D16*
X200160000Y-56000000D03*
X200160000Y-61000000D03*
%TD*%
D10*
%TO.C,J6*%
X169800000Y-116000000D03*
D11*
X172340000Y-116000000D03*
X174880000Y-116000000D03*
X177420000Y-116000000D03*
X179960000Y-116000000D03*
X182500000Y-116000000D03*
X185040000Y-116000000D03*
X187580000Y-116000000D03*
X190120000Y-116000000D03*
X192660000Y-116000000D03*
X195200000Y-116000000D03*
X197740000Y-116000000D03*
X200280000Y-116000000D03*
X202820000Y-116000000D03*
X205360000Y-116000000D03*
X207900000Y-116000000D03*
X210440000Y-116000000D03*
X212980000Y-116000000D03*
X215520000Y-116000000D03*
X218060000Y-116000000D03*
X220600000Y-116000000D03*
X223140000Y-116000000D03*
%TD*%
%TO.C,SW5*%
X99000000Y-125000000D03*
D14*
X104080000Y-125000000D03*
D11*
X109160000Y-125000000D03*
D15*
X106620000Y-119920000D03*
X100270000Y-122460000D03*
%TD*%
D10*
%TO.C,J3*%
X163160000Y-45800000D03*
D11*
X163160000Y-48340000D03*
X163160000Y-50880000D03*
X163160000Y-53420000D03*
X163160000Y-55960000D03*
X163160000Y-58500000D03*
X163160000Y-61040000D03*
X163160000Y-63580000D03*
X163160000Y-66120000D03*
X163160000Y-68660000D03*
X163160000Y-71200000D03*
X163160000Y-73740000D03*
X163160000Y-76280000D03*
X163160000Y-78820000D03*
%TD*%
D22*
%TO.C,D1*%
X210000000Y-78652651D03*
D17*
X210000000Y-76152651D03*
%TD*%
%TO.C,C2*%
X170000000Y-125000000D03*
X170000000Y-130000000D03*
%TD*%
D23*
%TO.C,D4*%
X176000000Y-126500000D03*
D13*
X176000000Y-128500000D03*
%TD*%
D17*
%TO.C,C1*%
X217500000Y-79500000D03*
X217500000Y-74500000D03*
%TD*%
%LPD*%
M02*
