M48
; DRILL file KiCad 10.0.3 date 2026-06-29T21:10:22
; FORMAT={-:-/ absolute / metric / decimal}
; #@! TF.CreationDate,2026-06-29T21:10:22-07:00
; #@! TF.GenerationSoftware,Kicad,Pcbnew,10.0.3
; #@! TF.FileFunction,Plated,1,2,PTH
FMAT,2
METRIC
; #@! TA.AperFunction,Plated,PTH,ViaDrill
T1C0.300
; #@! TA.AperFunction,Plated,PTH,ComponentDrill
T2C0.600
; #@! TA.AperFunction,Plated,PTH,ComponentDrill
T3C0.800
; #@! TA.AperFunction,Plated,PTH,ComponentDrill
T4C1.000
; #@! TA.AperFunction,Plated,PTH,ComponentDrill
T5C1.500
%
G90
G05
T1
X172.5Y-85.5
X178.0Y-120.0
X201.5Y-82.0
T2
X174.5Y-79.5
X174.5Y-81.5
X176.0Y-126.5
X176.0Y-128.5
T3
X152.0Y-120.0
X152.0Y-125.0
X168.5Y-77.0
X168.5Y-82.0
X170.0Y-125.0
X170.0Y-130.0
X209.88Y-84.5
X210.0Y-76.153
X210.0Y-78.653
X217.5Y-74.5
X217.5Y-79.5
X217.5Y-84.5
T4
X141.5Y-120.0
X141.5Y-122.54
X141.5Y-125.08
X141.5Y-127.62
X141.5Y-130.16
X147.0Y-118.75
X147.0Y-126.25
X163.16Y-45.8
X163.16Y-48.34
X163.16Y-50.88
X163.16Y-53.42
X163.16Y-55.96
X163.16Y-58.5
X163.16Y-61.04
X163.16Y-63.58
X163.16Y-66.12
X163.16Y-68.66
X163.16Y-71.2
X163.16Y-73.74
X163.16Y-76.28
X163.16Y-78.82
X169.8Y-90.0
X169.8Y-116.0
X172.34Y-90.0
X172.34Y-116.0
X174.88Y-90.0
X174.88Y-116.0
X177.42Y-90.0
X177.42Y-116.0
X179.96Y-90.0
X179.96Y-116.0
X182.5Y-90.0
X182.5Y-116.0
X185.04Y-90.0
X185.04Y-116.0
X185.66Y-56.0
X185.66Y-58.5
X185.66Y-61.0
X187.58Y-90.0
X187.58Y-116.0
X190.12Y-90.0
X190.12Y-116.0
X192.66Y-90.0
X192.66Y-116.0
X195.2Y-90.0
X195.2Y-116.0
X197.74Y-90.0
X197.74Y-116.0
X200.16Y-56.0
X200.16Y-61.0
X200.28Y-90.0
X200.28Y-116.0
X202.82Y-90.0
X202.82Y-116.0
X205.36Y-90.0
X205.36Y-116.0
X207.9Y-90.0
X207.9Y-116.0
X210.44Y-90.0
X210.44Y-116.0
X212.98Y-90.0
X212.98Y-116.0
X215.52Y-90.0
X215.52Y-116.0
X218.06Y-90.0
X218.06Y-116.0
X220.6Y-90.0
X220.6Y-116.0
X222.0Y-76.92
X222.0Y-79.46
X222.0Y-82.0
X223.14Y-90.0
X223.14Y-116.0
T5
X80.77Y-100.46
X87.12Y-97.92
X100.27Y-100.46
X100.27Y-122.46
X106.62Y-97.92
X106.62Y-119.92
X119.35Y-100.46
X125.7Y-97.92
X138.77Y-100.46
X145.12Y-97.92
T5
G00X192.51Y-52.9
M15
G01X193.81Y-52.9
M16
G05
G00X192.51Y-64.1
M15
G01X193.81Y-64.1
M16
G05
M30
