%TF.GenerationSoftware,KiCad,Pcbnew,10.0.3*%
%TF.CreationDate,2026-06-29T21:10:13-07:00*%
%TF.ProjectId,ComputerController,436f6d70-7574-4657-9243-6f6e74726f6c,rev?*%
%TF.SameCoordinates,Original*%
%TF.FileFunction,Copper,L1,Top*%
%TF.FilePolarity,Positive*%
%FSLAX46Y46*%
G04 Gerber Fmt 4.6, Leading zero omitted, Abs format (unit mm)*
G04 Created by KiCad (PCBNEW 10.0.3) date 2026-06-29 21:10:13*
%MOMM*%
%LPD*%
G01*
G04 APERTURE LIST*
G04 Aperture macros list*
%AMRoundRect*
0 Rectangle with rounded corners*
0 $1 Rounding radius*
0 $2 $3 $4 $5 $6 $7 $8 $9 X,Y pos of 4 corners*
0 Add a 4 corners polygon primitive as box body*
4,1,4,$2,$3,$4,$5,$6,$7,$8,$9,$2,$3,0*
0 Add four circle primitives for the rounded corners*
1,1,$1+$1,$2,$3*
1,1,$1+$1,$4,$5*
1,1,$1+$1,$6,$7*
1,1,$1+$1,$8,$9*
0 Add four rect primitives between the rounded corners*
20,1,$1+$1,$2,$3,$4,$5,0*
20,1,$1+$1,$4,$5,$6,$7,0*
20,1,$1+$1,$6,$7,$8,$9,0*
20,1,$1+$1,$8,$9,$2,$3,0*%
G04 Aperture macros list end*
%TA.AperFunction,ComponentPad*%
%ADD10R,1.700000X1.700000*%
%TD*%
%TA.AperFunction,ComponentPad*%
%ADD11C,1.700000*%
%TD*%
%TA.AperFunction,ComponentPad*%
%ADD12RoundRect,0.250000X0.350000X-0.350000X0.350000X0.350000X-0.350000X0.350000X-0.350000X-0.350000X0*%
%TD*%
%TA.AperFunction,ComponentPad*%
%ADD13C,1.200000*%
%TD*%
%TA.AperFunction,ComponentPad*%
%ADD14C,2.200000*%
%TD*%
%TA.AperFunction,ComponentPad*%
%ADD15C,2.000000*%
%TD*%
%TA.AperFunction,ComponentPad*%
%ADD16C,1.600000*%
%TD*%
%TA.AperFunction,ComponentPad*%
%ADD17R,2.000000X2.000000*%
%TD*%
%TA.AperFunction,ComponentPad*%
%ADD18R,3.200000X2.000000*%
%TD*%
%TA.AperFunction,ComponentPad*%
%ADD19RoundRect,0.250000X0.550000X-0.550000X0.550000X0.550000X-0.550000X0.550000X-0.550000X-0.550000X0*%
%TD*%
%TA.AperFunction,ComponentPad*%
%ADD20RoundRect,0.250000X-0.350000X0.350000X-0.350000X-0.350000X0.350000X-0.350000X0.350000X0.350000X0*%
%TD*%
%TA.AperFunction,ViaPad*%
%ADD21C,0.600000*%
%TD*%
%TA.AperFunction,Conductor*%
%ADD22C,0.200000*%
%TD*%
%TA.AperFunction,Conductor*%
%ADD23C,0.500000*%
%TD*%
G04 APERTURE END LIST*
D10*
%TO.P,J5,1,Pin_1_1*%
%TO.N,Net-(J5-Pin_1)*%
X222000000Y-82000000D03*
D11*
%TO.P,J5,2,Pin_2_2*%
%TO.N,Net-(D1-A)*%
X222000000Y-79460000D03*
%TO.P,J5,3,Pin_3_3*%
%TO.N,GND*%
X222000000Y-76920000D03*
%TD*%
D12*
%TO.P,D2,1,A_1*%
%TO.N,Net-(D1-A)*%
X174500000Y-81500000D03*
D13*
%TO.P,D2,2,K_2*%
%TO.N,GND*%
X174500000Y-79500000D03*
%TD*%
D14*
%TO.P,SW4,1,1_1*%
%TO.N,Net-(J6-Pin_18)*%
X145120000Y-97920000D03*
%TO.P,SW4,2,2_2*%
%TO.N,GND*%
X138770000Y-100460000D03*
%TD*%
%TO.P,SW1,1,1_1*%
%TO.N,Net-(J6-Pin_15)*%
X87120000Y-97920000D03*
%TO.P,SW1,2,2_2*%
%TO.N,GND*%
X80770000Y-100460000D03*
%TD*%
%TO.P,SW2,1,1_1*%
%TO.N,Net-(J6-Pin_17)*%
X125700000Y-97920000D03*
%TO.P,SW2,2,2_2*%
%TO.N,GND*%
X119350000Y-100460000D03*
%TD*%
D15*
%TO.P,D3,1,A_1*%
%TO.N,Net-(D1-A)*%
X147000000Y-126250000D03*
%TO.P,D3,2,K_2*%
%TO.N,GND*%
X147000000Y-118750000D03*
%TD*%
D10*
%TO.P,J7,1,Pin_1_1*%
%TO.N,GND*%
X223140000Y-90000000D03*
D11*
%TO.P,J7,2,Pin_2_2*%
%TO.N,unconnected-(J7-Pin_2-Pad2)*%
X220600000Y-90000000D03*
%TO.P,J7,3,Pin_3_3*%
%TO.N,unconnected-(J7-Pin_3-Pad3)*%
X218060000Y-90000000D03*
%TO.P,J7,4,Pin_4_4*%
%TO.N,unconnected-(J7-Pin_4-Pad4)*%
X215520000Y-90000000D03*
%TO.P,J7,5,Pin_5_5*%
%TO.N,unconnected-(J7-Pin_5-Pad5)*%
X212980000Y-90000000D03*
%TO.P,J7,6,Pin_6_6*%
%TO.N,Net-(J7-Pin_6)*%
X210440000Y-90000000D03*
%TO.P,J7,7,Pin_7_7*%
%TO.N,Net-(J7-Pin_7)*%
X207900000Y-90000000D03*
%TO.P,J7,8,Pin_8_8*%
%TO.N,unconnected-(J7-Pin_8-Pad8)*%
X205360000Y-90000000D03*
%TO.P,J7,9,Pin_9_9*%
%TO.N,unconnected-(J7-Pin_9-Pad9)*%
X202820000Y-90000000D03*
%TO.P,J7,10,Pin_10_10*%
%TO.N,Net-(J7-Pin_10)*%
X200280000Y-90000000D03*
%TO.P,J7,11,Pin_11_11*%
%TO.N,Net-(J7-Pin_11)*%
X197740000Y-90000000D03*
%TO.P,J7,12,Pin_12_12*%
%TO.N,Net-(J3-Pin_6)*%
X195200000Y-90000000D03*
%TO.P,J7,13,Pin_13_13*%
%TO.N,Net-(J3-Pin_8)*%
X192660000Y-90000000D03*
%TO.P,J7,14,Pin_14_14*%
%TO.N,Net-(J3-Pin_9)*%
X190120000Y-90000000D03*
%TO.P,J7,15,Pin_15_15*%
%TO.N,Net-(J3-Pin_10)*%
X187580000Y-90000000D03*
%TO.P,J7,16,Pin_16_16*%
%TO.N,Net-(J3-Pin_11)*%
X185040000Y-90000000D03*
%TO.P,J7,17,Pin_17_17*%
%TO.N,Net-(J3-Pin_12)*%
X182500000Y-90000000D03*
%TO.P,J7,18,Pin_18_18*%
%TO.N,unconnected-(J7-Pin_18-Pad18)*%
X179960000Y-90000000D03*
%TO.P,J7,19,Pin_19_19*%
%TO.N,unconnected-(J7-Pin_19-Pad19)*%
X177420000Y-90000000D03*
%TO.P,J7,20,Pin_20_20*%
%TO.N,unconnected-(J7-Pin_20-Pad20)*%
X174880000Y-90000000D03*
%TO.P,J7,21,Pin_21_21*%
%TO.N,unconnected-(J7-Pin_21-Pad21)*%
X172340000Y-90000000D03*
%TO.P,J7,22,Pin_22_22*%
%TO.N,GND*%
X169800000Y-90000000D03*
%TD*%
D16*
%TO.P,C3,1*%
%TO.N,GND*%
X152000000Y-120000000D03*
%TO.P,C3,2*%
%TO.N,Net-(D1-A)*%
X152000000Y-125000000D03*
%TD*%
D14*
%TO.P,SW3,1,1_1*%
%TO.N,Net-(J6-Pin_16)*%
X106620000Y-97920000D03*
%TO.P,SW3,2,2_2*%
%TO.N,GND*%
X100270000Y-100460000D03*
%TD*%
D10*
%TO.P,J4,1,Pin_1_1*%
%TO.N,GND*%
X141500000Y-120000000D03*
D11*
%TO.P,J4,2,Pin_2_2*%
%TO.N,Net-(D1-A)*%
X141500000Y-122540000D03*
%TO.P,J4,3,Pin_3_3*%
%TO.N,unconnected-(J4-Pin_3-Pad3)*%
X141500000Y-125080000D03*
%TO.P,J4,4,Pin_4_4*%
%TO.N,Net-(J4-Pin_4)*%
X141500000Y-127620000D03*
%TO.P,J4,5,Pin_5_5*%
%TO.N,unconnected-(J4-Pin_5-Pad5)*%
X141500000Y-130160000D03*
%TD*%
D16*
%TO.P,R1,1*%
%TO.N,Net-(J7-Pin_6)*%
X209880000Y-84500000D03*
%TO.P,R1,2*%
%TO.N,Net-(J5-Pin_1)*%
X217500000Y-84500000D03*
%TD*%
%TO.P,C4,1*%
%TO.N,Net-(D1-A)*%
X168500000Y-82000000D03*
%TO.P,C4,2*%
%TO.N,GND*%
X168500000Y-77000000D03*
%TD*%
D17*
%TO.P,SW6,A,A_A*%
%TO.N,Net-(J7-Pin_11)*%
X185660000Y-56000000D03*
D15*
%TO.P,SW6,B,B_B*%
%TO.N,Net-(J7-Pin_10)*%
X185660000Y-61000000D03*
%TO.P,SW6,C,C_C*%
%TO.N,GND*%
X185660000Y-58500000D03*
D18*
%TO.P,SW6,MP*%
%TO.N,N/C*%
X193160000Y-52900000D03*
X193160000Y-64100000D03*
D15*
%TO.P,SW6,S1,S1_S1*%
%TO.N,GND*%
X200160000Y-56000000D03*
%TO.P,SW6,S2,S2_S2*%
%TO.N,Net-(J7-Pin_7)*%
X200160000Y-61000000D03*
%TD*%
D10*
%TO.P,J6,1,Pin_1_1*%
%TO.N,Net-(D1-A)*%
X169800000Y-116000000D03*
D11*
%TO.P,J6,2,Pin_2_2*%
%TO.N,unconnected-(J6-Pin_2-Pad2)*%
X172340000Y-116000000D03*
%TO.P,J6,3,Pin_3_3*%
%TO.N,unconnected-(J6-Pin_3-Pad3)*%
X174880000Y-116000000D03*
%TO.P,J6,4,Pin_4_4*%
%TO.N,unconnected-(J6-Pin_4-Pad4)*%
X177420000Y-116000000D03*
%TO.P,J6,5,Pin_5_5*%
%TO.N,Net-(J4-Pin_4)*%
X179960000Y-116000000D03*
%TO.P,J6,6,Pin_6_6*%
%TO.N,unconnected-(J6-Pin_6-Pad6)*%
X182500000Y-116000000D03*
%TO.P,J6,7,Pin_7_7*%
%TO.N,unconnected-(J6-Pin_7-Pad7)*%
X185040000Y-116000000D03*
%TO.P,J6,8,Pin_8_8*%
%TO.N,unconnected-(J6-Pin_8-Pad8)*%
X187580000Y-116000000D03*
%TO.P,J6,9,Pin_9_9*%
%TO.N,unconnected-(J6-Pin_9-Pad9)*%
X190120000Y-116000000D03*
%TO.P,J6,10,Pin_10_10*%
%TO.N,unconnected-(J6-Pin_10-Pad10)*%
X192660000Y-116000000D03*
%TO.P,J6,11,Pin_11_11*%
%TO.N,unconnected-(J6-Pin_11-Pad11)*%
X195200000Y-116000000D03*
%TO.P,J6,12,Pin_12_12*%
%TO.N,unconnected-(J6-Pin_12-Pad12)*%
X197740000Y-116000000D03*
%TO.P,J6,13,Pin_13_13*%
%TO.N,unconnected-(J6-Pin_13-Pad13)*%
X200280000Y-116000000D03*
%TO.P,J6,14,Pin_14_14*%
%TO.N,unconnected-(J6-Pin_14-Pad14)*%
X202820000Y-116000000D03*
%TO.P,J6,15,Pin_15_15*%
%TO.N,Net-(J6-Pin_15)*%
X205360000Y-116000000D03*
%TO.P,J6,16,Pin_16_16*%
%TO.N,Net-(J6-Pin_16)*%
X207900000Y-116000000D03*
%TO.P,J6,17,Pin_17_17*%
%TO.N,Net-(J6-Pin_17)*%
X210440000Y-116000000D03*
%TO.P,J6,18,Pin_18_18*%
%TO.N,Net-(J6-Pin_18)*%
X212980000Y-116000000D03*
%TO.P,J6,19,Pin_19_19*%
%TO.N,Net-(J6-Pin_19)*%
X215520000Y-116000000D03*
%TO.P,J6,20,Pin_20_20*%
%TO.N,unconnected-(J6-Pin_20-Pad20)*%
X218060000Y-116000000D03*
%TO.P,J6,21,Pin_21_21*%
%TO.N,unconnected-(J6-Pin_21-Pad21)*%
X220600000Y-116000000D03*
%TO.P,J6,22,Pin_22_22*%
%TO.N,GND*%
X223140000Y-116000000D03*
%TD*%
D14*
%TO.P,SW5,1,1_1*%
%TO.N,Net-(J6-Pin_19)*%
X106620000Y-119920000D03*
%TO.P,SW5,2,2_2*%
%TO.N,GND*%
X100270000Y-122460000D03*
%TD*%
D10*
%TO.P,J3,1,Pin_1_1*%
%TO.N,unconnected-(J3-Pin_1-Pad1)*%
X163160000Y-45800000D03*
D11*
%TO.P,J3,2,Pin_2_2*%
%TO.N,unconnected-(J3-Pin_2-Pad2)*%
X163160000Y-48340000D03*
%TO.P,J3,3,Pin_3_3*%
%TO.N,unconnected-(J3-Pin_3-Pad3)*%
X163160000Y-50880000D03*
%TO.P,J3,4,Pin_4_4*%
%TO.N,unconnected-(J3-Pin_4-Pad4)*%
X163160000Y-53420000D03*
%TO.P,J3,5,Pin_5_5*%
%TO.N,unconnected-(J3-Pin_5-Pad5)*%
X163160000Y-55960000D03*
%TO.P,J3,6,Pin_6_6*%
%TO.N,Net-(J3-Pin_6)*%
X163160000Y-58500000D03*
%TO.P,J3,7,Pin_7_7*%
%TO.N,Net-(D1-A)*%
X163160000Y-61040000D03*
%TO.P,J3,8,Pin_8_8*%
%TO.N,Net-(J3-Pin_8)*%
X163160000Y-63580000D03*
%TO.P,J3,9,Pin_9_9*%
%TO.N,Net-(J3-Pin_9)*%
X163160000Y-66120000D03*
%TO.P,J3,10,Pin_10_10*%
%TO.N,Net-(J3-Pin_10)*%
X163160000Y-68660000D03*
%TO.P,J3,11,Pin_11_11*%
%TO.N,Net-(J3-Pin_11)*%
X163160000Y-71200000D03*
%TO.P,J3,12,Pin_12_12*%
%TO.N,Net-(J3-Pin_12)*%
X163160000Y-73740000D03*
%TO.P,J3,13,Pin_13_13*%
%TO.N,GND*%
X163160000Y-76280000D03*
%TO.P,J3,14,Pin_14_14*%
%TO.N,Net-(D1-A)*%
X163160000Y-78820000D03*
%TD*%
D19*
%TO.P,D1,1,A_1*%
%TO.N,Net-(D1-A)*%
X210000000Y-78652651D03*
D16*
%TO.P,D1,2,K_2*%
%TO.N,GND*%
X210000000Y-76152651D03*
%TD*%
%TO.P,C2,1*%
%TO.N,Net-(D1-A)*%
X170000000Y-125000000D03*
%TO.P,C2,2*%
%TO.N,GND*%
X170000000Y-130000000D03*
%TD*%
D20*
%TO.P,D4,1,A_1*%
%TO.N,Net-(D1-A)*%
X176000000Y-126500000D03*
D13*
%TO.P,D4,2,K_2*%
%TO.N,GND*%
X176000000Y-128500000D03*
%TD*%
D16*
%TO.P,C1,1*%
%TO.N,Net-(D1-A)*%
X217500000Y-79500000D03*
%TO.P,C1,2*%
%TO.N,GND*%
X217500000Y-74500000D03*
%TD*%
D21*
%TO.N,Net-(D1-A)*%
X201500000Y-82000000D03*
X172500000Y-85500000D03*
%TO.N,Net-(J4-Pin_4)*%
X178000000Y-120000000D03*
%TD*%
%TO.N,Net-(J5-Pin_1)*%
D22*
X217500000Y-84500000D02*
X219500000Y-84500000D01*
X219500000Y-84500000D02*
X222000000Y-82000000D01*
%TO.N,Net-(D1-A)*%
D23*
X165500000Y-116000000D02*
X169800000Y-116000000D01*
X147000000Y-126250000D02*
X143290000Y-122540000D01*
D22*
X166340000Y-82000000D02*
X168500000Y-82000000D01*
X217500000Y-79500000D02*
X218000000Y-79500000D01*
X163160000Y-78820000D02*
X166340000Y-82000000D01*
D23*
X216652651Y-78652651D02*
X217500000Y-79500000D01*
D22*
X166340000Y-82000000D02*
X166340000Y-85340000D01*
D23*
X170000000Y-125000000D02*
X174500000Y-125000000D01*
D22*
X166340000Y-85340000D02*
X166500000Y-85500000D01*
X159500000Y-75160000D02*
X163160000Y-78820000D01*
D23*
X152000000Y-125000000D02*
X148250000Y-125000000D01*
X165500000Y-85500000D02*
X165000000Y-86000000D01*
X174500000Y-125000000D02*
X176000000Y-126500000D01*
X218040000Y-79460000D02*
X222000000Y-79460000D01*
X165000000Y-96500000D02*
X165000000Y-102500000D01*
D22*
X218000000Y-79500000D02*
X218040000Y-79460000D01*
D23*
X165250000Y-115750000D02*
X165500000Y-116000000D01*
X165000000Y-86000000D02*
X165000000Y-96500000D01*
X165250000Y-116750000D02*
X157000000Y-125000000D01*
X165000000Y-115500000D02*
X165250000Y-115750000D01*
X204847349Y-78652651D02*
X210000000Y-78652651D01*
X148250000Y-125000000D02*
X147000000Y-126250000D01*
D22*
X163160000Y-61040000D02*
X159540000Y-61040000D01*
D23*
X165250000Y-115750000D02*
X165250000Y-116750000D01*
X143290000Y-122540000D02*
X141500000Y-122540000D01*
X152000000Y-125000000D02*
X157000000Y-125000000D01*
D22*
X159500000Y-61000000D02*
X159500000Y-75160000D01*
D23*
X210000000Y-78652651D02*
X216652651Y-78652651D01*
X166500000Y-85500000D02*
X172500000Y-85500000D01*
X166500000Y-85500000D02*
X165500000Y-85500000D01*
X204847349Y-78652651D02*
X201500000Y-82000000D01*
D22*
X159540000Y-61040000D02*
X159500000Y-61000000D01*
D23*
X169800000Y-116000000D02*
X169800000Y-124800000D01*
X165000000Y-102500000D02*
X165000000Y-115500000D01*
D22*
X174000000Y-82000000D02*
X174500000Y-81500000D01*
D23*
X169800000Y-124800000D02*
X170000000Y-125000000D01*
D22*
X168500000Y-82000000D02*
X174000000Y-82000000D01*
%TO.N,Net-(J7-Pin_6)*%
X209880000Y-84500000D02*
X209880000Y-89440000D01*
X209880000Y-89440000D02*
X210440000Y-90000000D01*
%TO.N,Net-(J7-Pin_7)*%
X200160000Y-61000000D02*
X200160000Y-66660000D01*
X200160000Y-66660000D02*
X200500000Y-67000000D01*
X200500000Y-82600000D02*
X207900000Y-90000000D01*
X200500000Y-67000000D02*
X200500000Y-82600000D01*
%TO.N,Net-(J7-Pin_10)*%
X184000000Y-61000000D02*
X184000000Y-67500000D01*
X199500000Y-67500000D02*
X199500000Y-89220000D01*
X199500000Y-89220000D02*
X200280000Y-90000000D01*
X185660000Y-61000000D02*
X184000000Y-61000000D01*
X184000000Y-67500000D02*
X199500000Y-67500000D01*
%TO.N,Net-(J7-Pin_11)*%
X182000000Y-56000000D02*
X182000000Y-69000000D01*
X185660000Y-56000000D02*
X182000000Y-56000000D01*
X197500000Y-69000000D02*
X197740000Y-69240000D01*
X182000000Y-69000000D02*
X197500000Y-69000000D01*
X197740000Y-69240000D02*
X197740000Y-90000000D01*
%TO.N,Net-(J3-Pin_6)*%
X182500000Y-71000000D02*
X195000000Y-71000000D01*
X195000000Y-71000000D02*
X195200000Y-71200000D01*
X163160000Y-58500000D02*
X181000000Y-58500000D01*
X181000000Y-58500000D02*
X181000000Y-69500000D01*
X181000000Y-69500000D02*
X182500000Y-71000000D01*
X195200000Y-71200000D02*
X195200000Y-90000000D01*
%TO.N,Net-(J3-Pin_8)*%
X182000000Y-72000000D02*
X192500000Y-72000000D01*
X180000000Y-70000000D02*
X182000000Y-72000000D01*
X192500000Y-72000000D02*
X192660000Y-72160000D01*
X164080000Y-64500000D02*
X180000000Y-64500000D01*
X163160000Y-63580000D02*
X164080000Y-64500000D01*
X180000000Y-64500000D02*
X180000000Y-70000000D01*
X192660000Y-72160000D02*
X192660000Y-90000000D01*
%TO.N,Net-(J3-Pin_9)*%
X163160000Y-66120000D02*
X179380000Y-66120000D01*
X179500000Y-70500000D02*
X182000000Y-73000000D01*
X182000000Y-73000000D02*
X189500000Y-73000000D01*
X179380000Y-66120000D02*
X179500000Y-66240000D01*
X189500000Y-73000000D02*
X190120000Y-73620000D01*
X190120000Y-73620000D02*
X190120000Y-90000000D01*
X179500000Y-66240000D02*
X179500000Y-70500000D01*
%TO.N,Net-(J3-Pin_10)*%
X187580000Y-75080000D02*
X187580000Y-90000000D01*
X178500000Y-69000000D02*
X178500000Y-70500000D01*
X178160000Y-68660000D02*
X178500000Y-69000000D01*
X182500000Y-74500000D02*
X187000000Y-74500000D01*
X163160000Y-68660000D02*
X178160000Y-68660000D01*
X187000000Y-74500000D02*
X187580000Y-75080000D01*
X178500000Y-70500000D02*
X182500000Y-74500000D01*
%TO.N,Net-(J3-Pin_11)*%
X177700000Y-71200000D02*
X182500000Y-76000000D01*
X182500000Y-76000000D02*
X184500000Y-76000000D01*
X163160000Y-71200000D02*
X177700000Y-71200000D01*
X184500000Y-76000000D02*
X185040000Y-76540000D01*
X185040000Y-76540000D02*
X185040000Y-90000000D01*
%TO.N,Net-(J3-Pin_12)*%
X178240000Y-73740000D02*
X181500000Y-77000000D01*
X163160000Y-73740000D02*
X178240000Y-73740000D01*
X182500000Y-77500000D02*
X182500000Y-90000000D01*
X181500000Y-77000000D02*
X182000000Y-77000000D01*
X182000000Y-77000000D02*
X182500000Y-77500000D01*
%TO.N,Net-(J4-Pin_4)*%
X178000000Y-117960000D02*
X179960000Y-116000000D01*
X178000000Y-120000000D02*
X178000000Y-117960000D01*
%TD*%
M02*
